<svg viewBox="192.5 19.225663716814097 1050.0000000000002 751.5486725663716" xmlns="http://www.w3.org/2000/svg" overflow="visible" xmlns:xlink="http://www.w3.org/1999/xlink" width="1050.0000000000002px" height="751.5486725663716px"><g id="Master/Scenes/Chatting" stroke="none" stroke-width="1" fill="none" fill-rule="evenodd"><path d="M568.565113,664 L1197,664 C1102.97162,242.666667 1017.7535,32 941.345656,32 C826.733887,32 784.776089,163.176606 721.907409,213.837286 C659.038728,264.497966 622.485952,286.866353 519.693933,250.351819 C416.901913,213.837286 203,229.320899 203,351.687419 C203,433.2651 233.060532,537.236507 293.181596,663.601642 L568.565113,664 Z" id="Background" fill="#FBF9FF"/><g transform="translate(131.000000, 276.000000) scale(2.3172866520787747 2.315240083507307)" id="Master/Character/Torso"><g id="Master/Character/Torso" stroke="none" stroke-width="1" fill="none" fill-rule="evenodd"><g id="Torso" transform="translate(0.000000, 23.000000) scale(1 1)"><g id="Torso/Notebook" stroke="none" stroke-width="1" fill="none" fill-rule="evenodd"><path d="M164.1851,118.6987 C164.2061,118.8617 164.2271,119.0247 164.2471,119.1887 C165.5711,119.1887 166.9011,119.2647 168.2161,119.1647 C169.2681,119.0847 169.1751,118.4227 168.7481,117.5607 C167.1641,117.9567 165.6741,118.3277 164.1851,118.6987 L164.1851,118.6987 Z M196.6581,114.6657 C195.1211,112.6777 193.9231,111.1307 192.7271,109.5827 C192.5501,109.6847 192.3741,109.7867 192.1981,109.8887 C192.8211,111.4667 193.4441,113.0447 194.0831,114.6657 L196.6581,114.6657 Z M201.9581,114.0677 C199.6511,111.6797 197.0961,109.9497 194.4671,108.2597 C195.3641,110.2127 196.7621,111.7857 198.0681,113.4327 C199.0761,114.7057 200.2221,114.8337 201.9581,114.0677 L201.9581,114.0677 Z M207.0961,114.5747 C206.6771,113.6637 206.6361,113.3877 206.4771,113.2557 C203.9141,111.1157 201.3541,108.9707 198.7481,106.8857 C198.0771,106.3487 197.2331,106.3137 195.7271,106.7877 C196.5891,107.3737 197.0801,107.6407 197.4921,107.9977 C199.7721,109.9697 201.9901,112.0177 204.3341,113.9087 C204.8871,114.3547 205.8481,114.2957 207.0961,114.5747 L207.0961,114.5747 Z M175.6651,115.5337 C181.0951,115.2217 186.4951,115.4807 192.0211,114.6477 C190.9211,111.7547 189.9161,109.1117 188.8431,106.2897 C183.6331,108.4857 180.5701,113.2567 175.6651,115.5337 L175.6651,115.5337 Z M171.4291,118.1827 C174.3311,119.0037 222.3061,118.1017 224.4111,117.5247 C224.0141,116.2107 224.0151,116.1897 222.5761,116.1807 C206.5931,116.0827 190.6311,116.6217 174.6891,117.7437 C173.5971,117.8207 172.5161,118.0337 171.4291,118.1827 L171.4291,118.1827 Z M197.6761,100.0007 C197.3991,98.1037 197.2321,96.7197 196.9821,95.3487 C196.8361,94.5527 196.2571,94.1087 195.4491,94.1327 C194.8241,94.1507 194.1891,94.2547 193.5821,94.4127 C184.6431,96.7407 175.7071,99.0807 166.7751,101.4307 C166.1111,101.6057 165.4731,101.8837 164.7471,102.1397 C164.8681,103.3717 164.9731,104.4407 165.1091,105.8107 C166.4341,105.2187 167.4371,104.7777 168.4331,104.3207 C171.6171,102.8617 174.8001,101.4037 177.9771,99.9307 C181.9551,98.0867 186.0271,97.6727 190.3121,98.7757 C192.5241,99.3447 194.8311,99.5417 197.6761,100.0007 L197.6761,100.0007 Z M92.1381,96.8437 C80.1181,99.6817 68.9601,98.8887 59.0911,90.3527 C58.2601,92.6187 57.5601,94.5257 56.7751,96.6667 C57.9831,97.0477 58.8641,97.3777 59.7711,97.6037 C69.2151,99.9627 78.8201,100.8277 88.5321,100.5607 C91.4251,100.4817 91.5021,100.3377 92.1381,96.8437 L92.1381,96.8437 Z M254.7221,50.6757 L254.3441,50.4647 C254.0331,50.8457 253.6381,51.1857 253.4231,51.6167 C252.3521,53.7567 251.2631,55.8907 250.2981,58.0807 C246.6311,66.4027 243.0281,74.7547 239.3641,83.0787 C236.8581,88.7717 234.2221,94.4097 231.7751,100.1287 C229.9871,104.3067 228.4081,108.5747 226.7451,112.8067 C226.6041,113.1637 226.5351,113.5477 226.4221,113.9497 C228.1111,114.8757 228.4211,113.5737 228.8321,112.5977 C237.2651,92.5997 245.6861,72.5977 254.1001,52.5927 C254.3591,51.9747 254.5171,51.3147 254.7221,50.6757 L254.7221,50.6757 Z M214.8941,108.2187 C214.9421,108.0477 214.9901,107.8757 215.0381,107.7037 C214.5061,107.4257 213.9971,107.0867 213.4401,106.8767 C206.1111,104.1027 198.6701,101.7647 190.7971,101.1237 C190.2541,101.0797 189.7121,100.9187 189.1881,100.7547 C186.3531,99.8647 183.5111,99.7207 180.7471,100.9137 C176.7171,102.6507 172.7041,104.4297 168.7391,106.3077 C166.9681,107.1467 165.2211,107.6237 163.2351,107.6357 C156.1211,107.6767 149.0081,107.8587 141.8951,107.9867 C140.2391,108.0157 138.5781,108.1257 136.9261,108.0487 C120.2891,107.2677 103.6851,107.6527 87.1171,109.3777 C85.6871,109.5267 84.2641,109.7507 82.8311,109.8647 C82.0921,109.9247 80.9901,110.3147 80.8211,109.2257 C80.6461,108.1047 81.7541,108.1887 82.5251,108.0887 C82.6831,108.0677 82.8431,108.0547 83.0011,108.0327 C85.2011,107.7217 87.4001,107.4097 89.5961,107.0977 C89.9081,105.4957 90.1871,104.0617 90.5111,102.3997 C80.0811,102.8127 70.0481,101.7267 60.0781,99.6737 C59.7791,100.5547 59.5271,101.1397 59.3821,101.7517 C57.5871,109.3667 55.7201,116.9727 55.2121,124.8177 C54.9871,128.3207 54.6591,131.8247 55.4371,135.3267 C56.1281,138.4337 57.8571,140.6467 60.6461,142.1097 C63.0981,143.3957 65.7111,144.0147 68.4641,144.1347 C75.4641,144.4367 82.0671,142.6567 88.5951,140.3927 C100.7361,136.1827 112.2891,130.4327 124.5981,126.6787 C128.0091,125.6377 131.4841,124.8047 134.9301,123.8787 C135.0071,123.8577 135.0871,123.8497 135.1651,123.8337 C139.1481,123.0027 143.1601,122.2907 147.1061,121.3147 C154.2341,119.5527 161.3141,117.5947 168.4331,115.7917 C173.2481,114.5717 177.5471,112.4537 181.2841,109.1417 C182.8301,107.7717 184.5431,106.5707 186.2731,105.4327 C187.6891,104.5017 189.3091,103.9987 191.0451,104.0937 C195.1091,104.3157 199.1691,104.4977 203.1181,105.6877 C205.4831,106.4017 207.9021,106.9527 210.3171,107.4847 C211.8241,107.8167 213.3681,107.9797 214.8941,108.2187 L214.8941,108.2187 Z M91.4181,106.8677 C92.1251,106.8987 92.4371,106.9417 92.7441,106.9217 C106.2281,106.0577 119.7061,105.5847 133.2341,106.0297 C142.8891,106.3467 152.5701,105.9017 162.2381,105.7807 C162.5281,105.7767 162.8151,105.5867 163.2031,105.4477 C162.9401,102.6917 162.7441,99.9847 162.4101,97.2947 C161.9481,93.5587 162.0181,90.8407 162.9051,89.1287 C164.4841,90.7197 163.7131,92.6357 163.9381,94.3007 C164.1891,96.1617 164.3611,98.0337 164.5941,100.1497 C174.4091,97.5327 183.8731,95.0087 193.4971,92.4417 C193.3071,91.7397 193.1851,91.1287 192.9781,90.5487 C189.8381,81.7497 186.7631,72.9267 183.5121,64.1687 C181.2061,57.9547 178.6071,51.8497 176.2361,45.6597 C174.2511,40.4797 170.7881,37.0947 165.2231,36.1147 C160.4311,35.2707 155.6381,34.4297 150.8311,33.6857 C148.4861,33.3237 146.1071,33.1847 143.6561,32.9357 C143.3611,34.0117 143.2121,34.8787 142.8881,35.6747 C141.9301,38.0307 141.2181,40.5667 139.8391,42.6567 C136.5151,47.6917 130.7631,50.0087 124.6231,46.4197 C122.0511,44.9167 119.6421,43.2127 117.7021,40.9377 C115.6911,38.5797 113.7631,36.1507 111.7061,33.6377 C101.8151,35.0867 92.4301,38.3237 83.6181,43.1587 C78.2661,46.0957 74.4171,50.5377 72.0181,56.1587 C70.9211,58.7247 69.8931,61.3347 69.0511,63.9937 C66.8091,71.0747 64.6941,78.1957 62.5131,85.2957 C61.0251,90.1417 60.9921,90.1777 65.5101,92.6697 C73.0981,96.8527 81.1641,97.3287 89.4561,95.4837 C93.0291,94.6887 93.0051,94.5847 94.2451,91.1417 C94.6771,89.9407 95.0491,88.7117 95.5801,87.5537 C95.7551,87.1697 96.3361,86.9697 96.7321,86.6847 C96.8871,87.1647 97.1601,87.6437 97.1641,88.1257 C97.1661,88.5777 96.8751,89.0287 96.7291,89.4847 C95.1661,94.3487 93.5971,99.2117 92.0571,104.0837 C91.7991,104.9007 91.6681,105.7597 91.4181,106.8677 L91.4181,106.8677 Z M195.3401,92.0257 C198.2501,92.4517 198.2251,92.4567 198.7661,95.0127 C199.1611,96.8757 199.6321,98.7217 200.0701,100.5767 C201.8261,101.0887 203.5811,101.5997 205.3371,102.1127 C209.5581,103.3447 213.7461,104.6717 217.6381,106.7667 C218.4621,107.2117 219.6401,107.5197 219.4851,108.6947 C219.3061,110.0457 218.0431,109.9747 217.0151,110.0337 C213.6971,110.2247 210.5101,109.4287 207.3141,108.7087 C206.1651,108.4507 205.0131,108.2087 203.3481,107.8467 C203.9701,108.5767 204.2201,108.9227 204.5231,109.2157 C206.1231,110.7667 207.7111,112.3327 209.3651,113.8257 C209.7311,114.1557 210.3431,114.3667 210.8431,114.3707 C214.7611,114.4007 218.6801,114.3427 222.5981,114.3717 C223.6411,114.3797 224.2071,113.9507 224.5851,113.0217 C225.7011,110.2857 226.9591,107.6037 227.9851,104.8357 C230.5681,97.8607 233.5271,91.0607 236.6771,84.3217 C240.8371,75.4237 244.6211,66.3487 248.6101,57.3697 C249.7121,54.8887 250.9321,52.4577 252.1731,50.0427 C252.9331,48.5637 255.1031,47.9697 256.4741,48.8027 C257.2211,49.2577 257.1941,49.9367 256.8701,50.6917 C255.9241,52.8937 255.0211,55.1157 254.0901,57.3247 C245.8371,76.9087 237.5821,96.4907 229.3311,116.0757 C229.0871,116.6547 228.8881,117.2517 228.5431,118.1727 C229.5681,118.2087 230.3951,118.2707 231.2211,118.2607 C241.6931,118.1157 252.1641,117.9597 262.6361,117.8097 C263.2761,117.8007 263.9391,117.7187 264.5451,117.8627 C264.9221,117.9527 265.2111,118.4067 265.5391,118.6967 C265.2361,118.9907 264.9711,119.4617 264.6191,119.5407 C263.9281,119.6947 263.1901,119.6447 262.4701,119.6557 C251.8371,119.8217 241.2051,119.9877 230.5721,120.1477 C209.4651,120.4657 188.3591,120.7777 167.2511,121.0947 C163.7351,121.1477 160.2071,121.4057 156.7061,121.1997 C154.8671,121.0907 153.3261,121.4977 151.7361,122.5337 C152.5541,122.5337 153.3721,122.5437 154.1921,122.5317 C173.9401,122.2537 193.6891,121.9617 213.4381,121.6957 C229.6691,121.4777 245.9011,121.2847 262.1331,121.1017 C263.0191,121.0927 263.9071,121.2777 264.7941,121.3727 C264.8361,121.5587 264.8781,121.7447 264.9201,121.9297 C264.5391,122.2307 264.1971,122.6817 263.7661,122.7967 C263.1651,122.9577 262.4981,122.8747 261.8581,122.8837 C234.4321,123.2487 207.0061,123.6117 179.5811,123.9777 C169.1861,124.1167 158.7911,124.2757 148.3961,124.3817 C147.3071,124.3927 146.2181,124.0687 145.1231,123.9717 C144.5811,123.9247 144.0111,123.9777 143.4781,124.0947 C137.2371,125.4637 130.9531,126.6707 124.7811,128.3057 C121.1771,129.2607 117.7491,130.8887 114.2551,132.2477 C105.1741,135.7757 96.1501,139.4587 87.0051,142.8147 C80.9031,145.0537 74.5531,146.3337 67.9711,145.9347 C64.9771,145.7537 62.1351,145.0497 59.4971,143.5937 C56.5511,141.9667 54.7901,139.5397 53.7211,136.2987 C52.3741,132.2137 53.2771,128.2307 53.5441,124.2037 C54.0851,116.0347 56.1151,108.1357 58.0031,100.2147 C58.0761,99.9127 58.0701,99.5927 58.0941,99.3347 C57.9361,99.1607 57.8541,98.9987 57.7241,98.9397 C54.7161,97.5787 54.6341,97.4627 55.6961,94.2387 C56.1681,92.8027 56.7751,91.4067 57.3921,90.0237 C57.6131,89.5307 57.9731,88.8347 58.3871,88.7387 C59.9701,88.3757 60.1401,87.1147 60.5091,85.9097 C62.9171,78.0437 65.2111,70.1377 67.8171,62.3367 C69.0491,58.6447 70.6781,55.0457 72.4991,51.5997 C75.0811,46.7177 79.2361,43.2767 84.0711,40.7747 C92.5651,36.3787 101.6001,33.4847 110.9641,31.5737 C112.2831,31.3047 112.8731,32.0477 113.5171,32.8797 C114.9351,34.7127 116.3411,36.5547 117.7671,38.3827 C119.8101,41.0027 122.3691,43.0197 125.1841,44.7547 C130.0681,47.7617 134.4951,46.2837 137.7421,42.3947 C140.0081,39.6797 140.9961,36.3847 141.6231,32.9697 C141.9611,31.1317 142.1801,30.8707 143.9171,31.0477 C151.0691,31.7757 158.1901,32.6227 165.2421,34.1517 C171.6671,35.5457 175.6621,39.2957 177.9241,45.2747 C181.5991,54.9867 185.3751,64.6597 189.0211,74.3827 C191.2081,80.2157 193.2281,86.1097 195.3401,92.0257 L195.3401,92.0257 Z" id="Fill-1" fill="#000"/></g></g><g id="Head" transform="translate(111.000000, 0.000000) scale(1 1)" fill="#000"><g id="Head/Head Bun" stroke="none" stroke-width="1" fill="none" fill-rule="evenodd"><g id="Group-16" transform="translate(-8.000000, -17.000000)" fill="#000"><path d="M41.0168,24.3401 C40.2808,21.4691 38.3328,19.7691 35.5028,19.4081 C33.2548,19.1211 30.8708,18.9871 28.6708,19.4191 C24.0488,20.3281 19.9798,22.5021 16.6748,25.9611 C16.3298,26.3241 15.9178,26.6261 15.5308,26.9491 C14.8398,29.3691 14.0048,31.7611 13.4938,34.2201 C13.3388,34.9601 13.2988,35.6741 13.3398,36.3741 C13.2418,36.3571 13.1528,36.3391 13.0718,36.3121 C10.1658,35.3511 7.9538,36.9861 8.0658,40.0451 C8.1488,42.3201 9.2408,44.0761 11.2568,45.0251 C12.4368,45.5791 12.7068,46.2261 12.6048,47.4201 C11.9548,54.9881 10.7248,62.4621 9.1778,69.8921 C8.9988,70.7471 9.1538,71.6711 9.1538,72.6281 C10.7268,72.5731 10.6658,71.5981 10.8438,70.7721 C12.5098,63.0391 13.7858,55.2461 14.4868,47.3621 C14.7058,44.8981 14.6788,44.8241 12.3098,43.5961 C10.4868,42.6521 9.4288,40.6241 10.0798,39.0741 C10.2998,38.5461 10.8418,37.8941 11.3268,37.8091 C11.7568,37.7351 12.3578,38.3151 12.7928,38.7061 C13.0058,38.8981 13.8118,39.7361 14.4048,40.2581 C14.7948,41.1141 15.2588,41.9721 15.7768,42.8481 C16.3098,40.5571 16.5918,38.6501 17.2038,36.8551 C18.6818,32.5111 21.7568,29.4331 25.4978,26.9441 C27.7868,25.4221 30.3258,25.3781 31.7258,23.2441 C31.7298,23.2441 31.7338,23.2441 31.7378,23.2431 C33.0088,24.5521 33.9208,24.4681 35.2168,25.5801 C36.8948,27.0171 38.4068,28.5391 39.3768,30.4601 C39.3648,31.7011 39.3088,32.9421 39.1958,34.1731 C38.5948,40.7041 37.7378,47.1961 34.7898,53.1921 C33.4328,55.9531 32.0098,56.5671 28.9868,55.6351 C26.7628,54.9491 24.6428,54.0421 22.8458,52.4961 C22.3308,52.0541 21.6868,51.3091 21.0398,52.1651 C20.4508,52.9451 21.2048,53.5121 21.7638,53.9241 C22.7238,54.6311 23.7048,55.3391 24.7638,55.8751 C27.4158,57.2181 30.1798,58.1941 33.2048,57.6361 C33.4818,58.4441 33.7138,59.0361 33.8888,59.6461 C34.9468,63.3281 35.9688,67.0221 37.0558,70.6961 C37.3258,71.6081 37.2628,72.8091 39.1588,73.2841 C39.0138,72.1901 38.9988,71.4201 38.8018,70.7001 C37.7028,66.6981 36.5368,62.7151 35.4498,58.7101 C35.2118,57.8361 34.7048,56.9851 35.3408,55.9751 C37.8548,51.9901 39.0528,47.5271 39.9098,42.9471 C40.4798,39.9001 40.9188,36.8391 41.1208,33.7621 C41.1398,33.7851 41.1538,33.7991 41.1718,33.8231 C41.5458,30.3071 41.7828,27.3221 41.0168,24.3401" id="Fill-12"/><path d="M1.4533,19.9929 C1.3923,16.7429 1.7383,15.4469 2.3783,14.7609 C2.0473,16.4129 2.1413,18.0839 2.4643,19.1819 C3.1103,21.3829 4.2893,23.4059 5.8953,24.5959 C6.7073,25.1959 7.5133,25.7199 8.3373,26.1529 C4.8963,25.4329 1.5233,23.7919 1.4533,19.9929 L1.4533,19.9929 Z M8.1953,8.2929 C8.5713,6.8739 8.8963,5.6499 10.6263,4.5829 C11.8573,3.8239 13.3903,3.8299 15.0453,4.0029 C12.1773,4.3059 10.7043,6.4349 8.1703,8.3889 C8.1783,8.3569 8.1863,8.3239 8.1953,8.2929 L8.1953,8.2929 Z M25.6383,2.8009 C27.7783,1.7829 29.9903,0.7289 32.8233,1.3759 C35.1063,1.8969 36.8253,3.7789 37.4193,6.4099 C37.6053,7.2379 37.6583,8.0609 37.5963,8.8219 C37.4913,7.2609 36.2503,2.3519 31.1893,2.3519 C28.1673,2.3519 25.8963,3.5629 22.5933,4.0549 C23.6533,3.7399 24.6583,3.2669 25.6383,2.8009 L25.6383,2.8009 Z M15.5323,26.9349 C15.5073,26.9429 15.4833,26.9449 15.4583,26.9519 L15.4783,26.7659 C15.4753,26.7649 15.4673,26.7649 15.4633,26.7649 C15.4583,26.0259 15.0273,25.2429 15.7843,24.5769 C19.0903,21.6709 22.4513,18.8439 26.8043,17.6179 C29.0883,16.9749 31.4323,16.2559 33.1993,18.6299 C35.3023,16.7399 36.8413,14.0299 37.3853,11.3089 C38.1083,10.0469 38.3303,8.1749 37.9073,6.2999 C37.2693,3.4759 35.4113,1.4529 32.9343,0.8889 C29.9303,0.2029 27.6393,1.2949 25.4233,2.3489 C24.0483,3.0029 22.7513,3.6199 21.2973,3.8419 C19.6923,4.0849 18.0443,3.8719 16.4513,3.6669 C14.2003,3.3779 12.0733,3.1039 10.3633,4.1579 C8.4643,5.3289 8.0983,6.7059 7.7123,8.1639 C7.6503,8.3959 7.5873,8.6289 7.5183,8.8639 C6.9453,9.2639 6.3223,9.6509 5.6143,10.0009 C3.9913,10.8059 3.0523,12.3259 2.5743,13.9609 C1.4453,14.6709 0.8773,15.8659 0.9533,20.0009 C1.0443,24.9369 6.1413,26.4789 10.3143,26.9809 C11.5103,27.3339 12.7803,27.4439 14.1853,27.2279 C14.3433,27.2309 14.4923,27.2339 14.6283,27.2369 C15.0113,27.2429 15.2863,27.2479 15.4233,27.2629 L15.4503,27.0139 C15.4763,26.9919 15.5043,26.9709 15.5303,26.9499 C15.5313,26.9439 15.5333,26.9389 15.5343,26.9329 L15.5323,26.9349 Z" id="Fill-14"/></g></g></g><g id="Face" transform="translate(125.000000, 12.000000) scale(1 1)" fill="#000"><g id="Face/Shiny Eyes" stroke="none" stroke-width="1" fill="none" fill-rule="evenodd"><g id="Group-26" transform="translate(-1.000000, 0.000000)"><polygon id="Fill-1" fill="#000" points="11.3315 5.2702 13.0425 12.0392 10.5475 12.2882"/><polygon id="Stroke-2" stroke="#000" stroke-width=".25" stroke-linejoin="round" points="11.3315 5.2702 13.0425 12.0392 10.5475 12.2882"/><g id="Group-25" transform="translate(0.000000, 0.638800)"><path d="M11.3373,15.9996 C11.2663,15.9996 11.1973,15.9978834 11.1323,15.993592 C9.2943,15.8845899 7.5583,14.3362443 7.1793,12.4677585 C7.1563,12.3561815 7.2433,12.2506125 7.3723,12.2308719 C7.5023,12.212848 7.6243,12.2866604 7.6473,12.3973792 C7.9833,14.0607349 9.5633,15.4923538 11.1653,15.5876234 C12.1113,15.6425536 13.8753,15.270058 15.0443,12.140752 C15.0843,12.0334665 15.2183,11.9751031 15.3433,12.0094345 C15.4683,12.0437659 15.5363,12.1579177 15.4963,12.264345 C14.3043,15.4563058 12.4553,15.9996 11.3373,15.9996" id="Fill-3" fill="#000"/><path d="M5.9848,6.0611 C3.9828,6.0611 2.7328,7.9601 2.0718,9.4061 C5.2708,8.2691 8.3298,8.5031 9.4608,8.6501 C9.0468,7.8691 7.9528,6.1831 6.1978,6.0681 C6.1258,6.0631 6.0548,6.0611 5.9848,6.0611 M1.6338,10.0631 C1.5728,10.0631 1.5118,10.0391 1.4668,9.9941 C1.3998,9.9261 1.3788,9.8261 1.4148,9.7381 C2.0628,8.1151 3.5548,5.4181 6.2288,5.5941 C7.3018,5.6651 8.3128,6.2561 9.1498,7.3041 C9.7708,8.0821 10.0778,8.8321 10.0898,8.8631 C10.1228,8.9441 10.1088,9.0361 10.0538,9.1021 C9.9988,9.1691 9.9118,9.2021 9.8258,9.1851 C9.7858,9.1771 5.7238,8.4351 1.7228,10.0451 C1.6948,10.0571 1.6648,10.0631 1.6338,10.0631" id="Fill-5" fill="#000"/><path d="M14.519,8.1998 C16.242,8.1998 18.264,8.6128 19.086,8.7998 C18.889,8.0188 18.281,6.2088 16.838,5.9868 C15.898,5.8438 15.072,6.0108 14.446,6.4708 C13.9,6.8718 13.521,7.4938 13.34,8.2818 C13.702,8.2238 14.101,8.1998 14.519,8.1998 M19.399,9.3538 C19.379,9.3538 19.36,9.3518 19.341,9.3468 C19.299,9.3368 15.149,8.3098 13.099,8.8138 C13.022,8.8328 12.941,8.8118 12.882,8.7588 C12.824,8.7048 12.795,8.6268 12.808,8.5478 C12.969,7.4718 13.439,6.6218 14.165,6.0878 C14.894,5.5518 15.843,5.3538 16.911,5.5178 C17.823,5.6588 18.584,6.3268 19.114,7.4508 C19.5,8.2728 19.627,9.0468 19.633,9.0788 C19.646,9.1578 19.618,9.2378 19.559,9.2918 C19.515,9.3328 19.457,9.3538 19.399,9.3538" id="Fill-7" fill="#000"/><path d="M13.5209,7.9879 C13.5209,6.9589 14.192426,6.1249 15.0212527,6.1249 C15.849374,6.1249 16.5209,6.9589 16.5209,7.9879 C16.5209,8.2219 16.4799877,8.6169 16.4165031,8.8239 C15.6977164,8.5509 14.1888991,8.2579 13.6055461,8.4809 C13.5533477,8.3119 13.5209,8.1429 13.5209,7.9879" id="Fill-9" fill="#000"/><path d="M2.683,8.3316 C2.683,7.3026 3.57836798,6.4686 4.68252974,6.4686 C5.78763202,6.4686 6.683,7.5366 6.683,8.5656 C5.30326805,8.8716 3.63479873,9.0056 3.00841735,9.2276 C2.82219586,8.9356 2.683,8.6116 2.683,8.3316" id="Fill-13" fill="#000"/><path d="M9.0238,0.5094 C9.0238,0.5094 9.7458,2.4224 9.3998,2.9524 C7.6008,2.8884 2.1548,2.3554 0.1258,5.3534 C0.8028,0.6464 9.0238,0.5094 9.0238,0.5094" id="Fill-17" fill="#000"/><path d="M9.0238,0.5094 C9.0238,0.5094 9.7458,2.4224 9.3998,2.9524 C7.6008,2.8884 2.1548,2.3554 0.1258,5.3534 C0.8028,0.6464 9.0238,0.5094 9.0238,0.5094 Z" id="Stroke-19" stroke="#000" stroke-width=".25" stroke-linejoin="round"/><path d="M12.4203695,2.9695 C13.9149985,2.7635 18.4181114,1.8025 20.3081316,4.6315 C19.432921,-0.0085 12.5733433,0.5025 12.5733433,0.5025 C12.5733433,0.5025 12.0977036,2.4675 12.4203695,2.9695 Z" id="Fill-21" fill="#000"/><path d="M12.7264382,0.369278924 L12.5640572,0.377845401 L12.4518518,0.473092271 L12.3769145,0.81393341 C12.3578815,0.907611827 12.3377913,1.01183026 12.3177033,1.12375413 C12.2770089,1.35049152 12.243661,1.5714067 12.2202144,1.77985423 C12.1527324,2.37978799 12.1705391,2.81199839 12.3152176,3.03708754 L12.4374365,3.09332939 L13.4060397,2.94893571 C14.586362,2.78169478 15.569867,2.72205416 16.5317528,2.81115922 C18.1804175,2.96388458 19.4372234,3.5529317 20.2041935,4.70093975 C20.2797962,4.81410257 20.4561912,4.74206648 20.4309655,4.60833069 C20.0606447,2.64504447 18.6415841,1.42648857 16.5215016,0.807760443 C15.2181274,0.427381714 13.8603989,0.323143983 12.7264382,0.369278924 Z M16.7026252,1.12503704 C18.3526826,1.65988019 19.5126702,2.5879002 20.0079032,3.99095403 L20.038,4.085 L19.962679,4.00151283 C19.1446048,3.14826806 17.9856766,2.69477422 16.554813,2.56222503 C15.6929269,2.48238352 14.8188659,2.51887398 13.8113059,2.64295273 L13.1158984,2.73897054 L12.492,2.832 L12.4704653,2.76251788 C12.4207277,2.56110536 12.4213658,2.22814843 12.4686477,1.80779859 C12.4914305,1.60525338 12.5239819,1.38961387 12.5637715,1.16791804 L12.5931778,1.0093664 C12.6223168,0.857214861 12.6502556,0.725341571 12.673,0.622 L12.736601,0.619072275 C13.8458325,0.573943433 15.1785532,0.676261219 16.4514629,1.04774916 L16.7026252,1.12503704 Z" id="Stroke-23" fill="#000" fill-rule="nonzero"/></g></g><circle id="Oval" fill="#FFF" cx="4.5" cy="7.5" r="1"/><circle id="Oval-Copy-2" fill="#FFF" cx="15.5" cy="7.5" r="1"/><circle id="Oval-Copy" fill="#FFF" cx="16.5" cy="7.5" r="1"/></g></g><g id="Glasses" transform="translate(122.000000, 17.000000) scale(1 1)"><g id="Glasses/Round" stroke="none" stroke-width="1" fill="none" fill-rule="evenodd"><path d="M19.2501,6.77461 C16.9011,6.77461 15.2231,5.24661 15.0431,3.00861 L15.0771,3.00861 L15.0771,2.49261 L15.0281,2.49261 C15.0771,0.49461 16.3881,-1.48339 19.2501,-1.48339 C22.1681,-1.48339 23.4741,0.57161 23.4741,2.60761 C23.4741,5.06061 21.7371,6.77461 19.2501,6.77461 M7.1041,7.06361 C4.4031,7.06361 2.5171,5.29061 2.5171,2.75161 C2.5171,0.64361 3.9361,-1.48339 7.1041,-1.48339 C10.2741,-1.48339 11.6931,0.64361 11.6931,2.75161 C11.6931,5.29061 9.8071,7.06361 7.1041,7.06361 M19.2501,-1.99939 C16.4991,-1.99939 14.5671,-0.15839 14.5131,2.49261 L12.2041,2.49261 C12.1451,1.17061 11.6281,0.04861 10.7011,-0.76039 C9.7871,-1.55939 8.5101,-1.99939 7.1041,-1.99939 C5.7001,-1.99939 4.4231,-1.55939 3.5081,-0.76039 C2.5211,0.10061 2.0001,1.31561 2.0001,2.75161 C2.0001,5.59361 4.0991,7.58061 7.1041,7.58061 C10.0191,7.58061 12.0801,5.71361 12.2031,3.00861 L14.5251,3.00861 C14.7061,5.54961 16.5971,7.29161 19.2501,7.29161 C22.0411,7.29161 23.9901,5.36561 23.9901,2.60761 C23.9901,-0.10539 22.0411,-1.99939 19.2501,-1.99939" id="Fill-1" fill="#F7B500"/></g></g></g></g><g transform="translate(766.500000, 830.500000) scale(-1, 1) translate(-766.500000, -830.500000) translate(237.000000, 276.000000) scale(2.3172866520787747 2.315240083507307)" fill="#000" id="Master/Character/Torso"><g id="Master/Character/Torso" stroke="none" stroke-width="1" fill="none" fill-rule="evenodd"><g id="Torso" transform="translate(0.000000, 23.000000) scale(1 1)"><g id="Torso/Crossed Arms Color" stroke="none" stroke-width="1" fill="none" fill-rule="evenodd"><g id="Group-9" transform="translate(24.000000, 30.000000)"><path d="M35.4479,66.9466 C35.4479,66.9466 48.8309,17.2586 58.1219,13.8816 C67.4129,10.5026 89.3269,2.3506 89.3269,2.3506 C89.3269,2.3506 92.7209,20.1816 110.5019,17.7816 C122.0019,16.2296 118.2909,1.6486 118.2909,1.6486 C118.2909,1.6486 155.3089,6.1686 161.6809,9.6486 C163.0689,10.4076 170.2399,20.1176 175.8029,36.5526 C176.9029,39.8006 180.1399,57.5046 180.4909,58.0716 C181.9939,60.5096 162.1309,64.8916 155.5129,61.4506 C158.6459,74.0506 141.8769,72.7566 140.4179,72.7126 C116.6069,72.0046 119.7719,76.0466 111.8329,79.1756 C92.9489,86.6186 63.3919,78.1336 63.3919,78.1336 C63.3919,78.1336 21.7449,82.4506 24.5429,76.0276 C26.0049,68.3656 35.4479,66.9466 35.4479,66.9466" id="Fill-1" fill="#779BE7"/><g id="Group-8" transform="translate(0.000000, 0.266000)" fill="#000"><path d="M112.5182,80.6757 C110.9492,81.0657 109.3802,81.4547 107.8122,81.8437 C111.1932,82.4737 111.1932,82.4737 112.5182,80.6757 L112.5182,80.6757 Z M180.4912,57.8057 C179.8432,55.7757 179.1822,53.7007 178.4412,51.3737 C177.3492,51.9197 176.5732,52.2827 175.8202,52.6907 C174.4872,53.4107 173.1852,54.1927 171.8392,54.8887 C167.2742,57.2477 162.3342,58.5837 157.4652,60.1157 C156.7602,60.3377 155.8872,60.2957 155.5132,61.1847 C158.5562,62.7167 175.1002,60.5057 180.4912,57.8057 L180.4912,57.8057 Z M61.2872,72.9217 C60.8362,72.8307 60.5352,72.7217 60.2312,72.7157 C54.3762,72.5987 48.6572,71.4787 42.9482,70.3307 C38.8842,69.5137 34.8432,68.5757 30.8162,67.5897 C29.5002,67.2667 28.5502,67.6077 27.9792,68.7007 C26.7762,71.0067 25.6952,73.3757 24.5432,75.7617 C25.2752,76.2527 25.6962,76.6317 26.1882,76.8517 C30.0052,78.5587 33.9862,79.6387 38.1702,79.9487 C42.8922,80.2997 47.5852,79.9867 52.2572,79.3297 C55.2392,78.9117 58.2022,78.3627 61.2872,77.8537 L61.2872,72.9217 Z M156.4422,98.5497 C156.6622,98.5647 156.8992,98.6187 157.1252,98.5897 C165.5952,97.4967 174.0652,96.3907 182.5362,95.3017 C184.8742,95.0007 185.8202,94.0767 185.6932,91.6997 C185.5822,89.6357 185.3852,87.5377 184.8842,85.5397 C183.1562,78.6517 181.2842,71.7977 179.4522,64.9347 C179.0872,63.5687 178.6572,62.2207 178.3402,61.1457 C171.0002,62.1627 163.9132,63.1457 156.5392,64.1677 C156.9732,65.6067 157.4402,67.1557 157.8552,68.5337 C160.1902,69.0707 162.4102,67.1707 164.8612,69.3127 C160.4562,70.7967 156.2682,70.6667 152.3042,71.6377 C148.3502,72.6047 144.3902,73.5527 140.4132,74.4227 C136.3592,75.3097 132.5472,76.8077 128.8722,78.7707 C133.1552,78.2737 137.4242,77.7337 141.5702,76.6987 C146.1292,75.5607 150.5602,73.9117 155.0772,72.5887 C158.9842,71.4447 160.5572,72.8577 159.9592,76.8117 C159.9502,76.8707 160.0202,76.9437 160.0532,77.0107 C160.1942,77.0707 160.3392,77.1917 160.4722,77.1797 C161.9932,77.0427 163.4332,77.1967 164.0962,78.8097 C164.7752,80.4587 163.5992,81.4877 162.5982,82.5247 C162.3772,82.7537 162.1562,83.0127 161.8802,83.1547 C159.6942,84.2937 157.4982,85.4157 155.2962,86.5247 C154.7572,86.7957 154.1832,86.9977 153.6242,87.2327 C154.7832,87.4837 155.7952,87.2987 156.8162,87.1907 C157.8482,87.0817 158.8952,86.9437 159.9222,87.0117 C161.0152,87.0847 162.2042,87.1597 163.1532,87.6327 C165.4762,88.7887 165.5402,90.8847 163.3012,92.1967 C161.8682,93.0357 160.2702,93.6037 158.7242,94.2387 C157.6632,94.6727 156.5632,95.0137 155.6052,95.3537 C155.9282,96.5917 156.1812,97.5557 156.4422,98.5497 L156.4422,98.5497 Z M137.8302,72.0177 C136.6782,72.0727 135.8102,72.0627 134.9562,72.1667 C129.9142,72.7867 125.0392,73.8847 120.9512,77.1837 C118.8412,78.8867 116.6212,80.4667 114.6342,82.3007 C113.0522,83.7617 111.3632,84.3837 109.2462,84.2767 C106.7742,84.1517 104.2922,84.2327 101.8162,84.1597 C99.9832,84.1057 98.1482,84.0027 96.3222,83.8267 C89.3212,83.1547 82.3192,82.4817 75.3262,81.7317 C71.1312,81.2807 66.8642,81.3777 62.7832,79.9887 C61.9242,79.6967 60.8722,79.8027 59.9392,79.9317 C56.3782,80.4207 52.8412,81.0857 49.2752,81.5187 C44.0162,82.1557 38.7412,82.2277 33.5172,81.1727 C31.4462,80.7547 29.4202,80.1117 27.2572,79.5387 C27.0752,80.4047 26.8582,81.0927 26.7942,81.7947 C26.4552,85.5337 26.0112,89.2737 25.8872,93.0217 C25.7842,96.1247 25.9262,99.2557 26.2292,102.3487 C26.6872,107.0037 29.2232,110.1627 33.6932,111.6777 C34.7492,112.0347 35.8222,112.3697 36.9122,112.5977 C40.7182,113.3917 44.5602,113.1277 48.3792,112.7787 C55.6992,112.1077 63.0072,111.3257 70.3202,110.5927 C76.9982,109.9217 83.6792,109.2767 90.3542,108.5777 C97.3452,107.8477 104.3352,107.1057 111.3182,106.2937 C117.0292,105.6307 122.7472,104.9767 128.4272,104.0957 C132.5902,103.4487 136.7082,102.4927 140.8272,101.5807 C144.4082,100.7867 147.9692,99.9027 151.5162,98.9677 C152.3492,98.7487 153.3442,98.5687 154.1522,97.2017 C148.0692,97.8237 142.6162,100.2477 136.8272,99.3207 C136.4222,98.3677 136.9092,97.9337 137.7262,97.7527 C138.6622,97.5457 139.6132,97.4107 140.5532,97.2267 C147.0632,95.9437 153.5002,94.3877 159.7192,92.0357 C160.9502,91.5717 162.2752,91.1647 162.9762,89.7987 C161.7632,88.5587 160.3432,88.5077 158.8992,88.7277 C153.8442,89.4957 148.7982,90.3177 143.7452,91.0897 C141.2402,91.4727 138.7342,91.9537 136.0412,91.6757 C135.9762,90.9517 135.9222,90.3587 135.8612,89.6727 C136.5202,89.4947 137.0412,89.3107 137.5792,89.2167 C143.9682,88.1037 150.2282,86.4877 156.2792,84.1557 C157.9672,83.5057 159.5422,82.5027 161.0562,81.4907 C161.6802,81.0747 162.0052,80.2127 162.4662,79.5527 C162.3572,79.3737 162.2472,79.1967 162.1382,79.0177 C161.2442,79.0907 160.3222,79.0497 159.4592,79.2557 C155.1172,80.2917 150.7992,81.4367 146.4532,82.4577 C143.2682,83.2067 140.0572,83.8457 136.8472,84.4837 C136.1392,84.6237 135.1722,85.0037 135.0642,83.3957 C136.0302,83.0717 137.0392,82.6417 138.0922,82.3947 C141.6652,81.5537 145.2962,80.9247 148.8242,79.9267 C151.4972,79.1717 154.0732,78.0417 156.6332,76.9427 C157.5162,76.5637 158.8022,75.9607 158.2032,74.6727 C157.6422,73.4707 156.5012,74.2677 155.6532,74.5127 C151.8222,75.6187 148.0152,76.8107 144.1842,77.9157 C142.2682,78.4687 140.3372,79.0147 138.3782,79.3657 C133.5902,80.2247 128.7812,80.9647 123.9812,81.7587 C123.1472,81.8977 122.3172,82.0657 120.9592,82.3187 C122.9262,80.2437 124.7112,78.8297 126.6792,77.6047 C129.3622,75.9337 132.3482,75.0667 135.3222,74.1377 C136.2762,73.8397 137.3552,73.6377 137.8302,72.0177 L137.8302,72.0177 Z M87.4272,3.0937 C85.6222,3.8677 83.8492,4.5807 82.1162,5.3797 C77.9082,7.3197 73.6622,9.1887 69.5362,11.2907 C65.3412,13.4287 61.1892,15.6777 57.1682,18.1227 C52.2252,21.1307 48.2542,25.2127 45.7252,30.4467 C43.6802,34.6807 41.7642,39.0107 40.2322,43.4497 C38.2282,49.2597 36.6422,55.2127 34.9152,61.1157 C34.4302,62.7757 34.0822,64.4737 33.6232,66.3517 C42.9042,68.5797 51.9552,70.6127 61.4862,70.9007 C61.6232,68.9727 61.6632,67.3757 61.8712,65.8017 C62.0802,64.2097 61.4272,62.4667 62.5392,61.0247 C63.8432,61.1177 63.7392,62.0127 63.7142,62.7957 C63.6412,65.1937 63.5172,67.5887 63.4392,69.9857 C63.3642,72.3017 63.3232,74.6187 63.2632,76.9357 C63.2312,78.1837 63.7872,78.8577 65.0752,78.9647 C66.5862,79.0907 68.0902,79.3177 69.6002,79.4677 C76.9142,80.1987 84.2252,80.9687 91.5462,81.6177 C94.1482,81.8487 96.7342,82.5137 99.3972,81.8527 C104.5122,80.5827 109.6682,79.4767 114.7782,78.1857 C116.0492,77.8637 117.3582,77.2887 118.3942,76.4967 C123.8782,72.3007 130.1202,70.4857 136.9232,70.2137 C138.5832,70.1477 139.9812,70.2907 140.4172,72.4467 C145.6372,71.2647 150.7262,70.1117 156.0262,68.9107 C155.6772,67.7217 155.4572,66.7167 155.0932,65.7677 C153.8642,62.5637 152.5782,59.3807 151.3272,56.1847 C151.0972,55.5957 150.8692,54.9927 150.7642,54.3757 C150.7262,54.1547 151.0022,53.7537 151.2312,53.6537 C151.4522,53.5557 151.9312,53.6427 152.0622,53.8207 C152.4342,54.3277 152.7042,54.9147 152.9812,55.4877 C153.5302,56.6147 154.0562,57.7537 154.6522,59.0157 C162.4132,56.7297 170.0702,54.7677 176.7282,49.8987 C176.1972,46.9017 175.7342,43.9097 175.1282,40.9477 C173.7692,34.2897 172.1432,27.7157 169.4902,21.4137 C166.6492,14.6687 161.9272,10.5297 154.6832,8.7477 C143.0652,5.8887 131.3082,4.2927 119.4002,3.5767 C118.9422,3.5497 118.4752,3.6657 117.9232,3.7247 C117.7562,4.3957 117.5362,4.9987 117.4642,5.6197 C117.1422,8.4647 116.0332,11.0147 114.5592,13.4207 C112.0212,17.5637 108.5162,19.0697 103.7532,18.1827 C98.7632,17.2527 94.9222,14.5357 92.0272,10.4937 C90.4082,8.2337 89.0762,5.7687 87.4272,3.0937 L87.4272,3.0937 Z M187.2692,94.5867 C200.2622,93.4917 212.9652,90.8817 225.9112,91.0757 C225.9972,91.0777 226.0782,91.3227 226.2022,91.5177 C225.8692,92.7107 224.8172,92.5987 223.9062,92.6767 C219.6862,93.0367 215.4512,93.2657 211.2452,93.7437 C202.5152,94.7367 193.8012,95.8597 185.0802,96.9207 C183.5162,97.1107 181.9482,97.2607 180.1502,97.4547 C180.2942,98.4747 180.3652,99.2447 180.5192,99.9977 C181.4782,104.6927 182.4592,109.3817 183.4242,114.0747 C183.5792,114.8277 184.0452,115.8567 182.9772,116.1197 C181.9072,116.3847 181.7882,115.2377 181.6322,114.5117 C180.5792,109.5927 179.5802,104.6617 178.5502,99.7377 C178.4232,99.1327 178.2212,98.5427 178.0252,97.8447 C173.6932,98.3207 169.5072,98.8977 165.3012,99.2137 C159.6102,99.6427 154.2202,101.5187 148.6372,102.4467 C140.2092,103.8467 131.8152,105.4807 123.3542,106.6327 C112.6722,108.0887 101.9442,109.2047 91.2262,110.3817 C84.1592,111.1577 77.0732,111.7697 69.9982,112.4767 C63.0832,113.1677 56.1762,113.9457 49.2542,114.5657 C46.3152,114.8287 43.3472,114.7577 40.3952,114.8937 C38.3422,114.9887 36.2932,115.1797 34.1932,115.3307 C33.9402,118.0497 33.6982,120.5017 33.4862,122.9567 C32.6272,132.9047 31.7772,142.8527 30.9262,152.8007 C30.8532,153.6507 31.0162,154.5987 29.9552,154.9997 C28.8572,154.6277 29.0822,153.7347 29.1262,152.9857 C29.3922,148.4397 29.5882,143.8847 30.0082,139.3517 C30.5982,132.9897 31.3902,126.6477 32.0332,120.2907 C32.1752,118.8837 32.0532,117.4497 32.0532,115.6687 C28.4592,115.9497 24.9122,116.1957 21.3722,116.5127 C17.7912,116.8327 14.2252,117.3367 10.6392,117.5557 C7.1132,117.7707 3.6402,118.7957 0.0272,118.5667 C-0.1578,117.1357 0.6272,116.9897 1.4472,116.8777 C3.6632,116.5737 5.8722,116.1927 8.0972,115.9817 C15.4942,115.2797 22.8982,114.6417 30.2982,113.9677 C30.9062,113.9117 31.5062,113.7687 32.5272,113.5947 C31.8452,113.0957 31.5302,112.7967 31.1592,112.6047 C27.2132,110.5507 25.0402,107.1677 24.5762,102.8947 C24.1722,99.1807 24.1452,95.3997 24.2802,91.6597 C24.4352,87.3627 24.9522,83.0787 25.3232,78.6557 C24.9002,78.3697 24.4472,78.0607 23.9912,77.7567 C22.8832,77.0207 22.6172,75.9777 23.1342,74.8287 C24.1822,72.4997 25.2722,70.1877 26.4412,67.9167 C27.5462,65.7717 29.4362,65.2107 31.7162,65.7497 C33.2992,60.2697 34.8102,54.9027 36.4022,49.5597 C38.0192,44.1257 39.7372,38.7397 42.0202,33.5197 C45.8702,24.7167 52.0892,18.2487 60.4972,13.7997 C64.1652,11.8577 67.8762,9.9857 71.6402,8.2357 C76.9232,5.7797 82.2732,3.4677 87.5962,1.0997 C87.8762,0.9757 88.1822,0.9067 88.7192,0.7337 C89.0332,1.3957 89.3352,2.0057 89.6152,2.6267 C91.6062,7.0517 94.0382,11.1407 98.1642,13.9547 C100.6012,15.6167 103.2762,16.5387 106.2402,16.6177 C108.8512,16.6877 110.8762,15.6477 112.3622,13.5107 C114.0292,11.1127 115.1642,8.4977 115.6062,5.6007 C115.7632,4.5737 115.8322,3.5267 116.0822,2.5237 C116.2402,1.8967 116.6612,1.3347 116.8272,1.0117 C118.3102,1.3507 119.4212,1.7567 120.5552,1.8387 C129.3252,2.4757 138.0792,3.2557 146.6922,5.0947 C150.4352,5.8947 154.1292,6.9217 157.8362,7.8827 C162.9392,9.2047 166.4952,12.4217 169.0992,16.9197 C171.8542,21.6777 173.5732,26.8197 174.8572,32.1027 C176.0252,36.9077 176.8962,41.7867 177.8872,46.6357 C178.1722,48.0297 178.2902,49.4357 179.6892,50.3617 C180.2092,50.7057 180.4622,51.5497 180.6942,52.2157 C181.1662,53.5717 181.5622,54.9567 181.9522,56.3407 C182.6162,58.6997 182.5552,58.8247 180.2102,60.3367 C180.4432,61.3807 180.6602,62.5307 180.9572,63.6597 C182.7082,70.2987 184.5382,76.9177 186.2172,83.5747 C187.1102,87.1157 187.8062,90.7147 187.2692,94.5867 L187.2692,94.5867 Z" id="Fill-3"/><path d="M42.0153,141.8857 C40.3723,141.0547 40.8543,140.0007 40.9613,139.1367 C41.2953,136.4417 41.7323,133.7597 42.0953,131.0687 C42.2303,130.0607 42.2703,129.0397 42.3693,127.8467 C40.4253,128.2837 38.7643,128.6577 37.0513,129.0437 C36.6833,127.4787 37.5543,127.2247 38.4083,126.9797 C41.4783,126.1007 44.5483,125.2157 47.6253,124.3617 C58.3243,121.3907 69.0363,118.4457 80.0123,116.6897 C87.6613,115.4657 95.3383,114.3567 103.0403,113.5587 C113.6913,112.4557 124.3703,111.6127 135.0493,110.8097 C148.1433,109.8237 161.2463,109.6177 174.3383,110.9487 C174.9643,111.0137 175.5853,111.1397 176.1723,111.2307 C176.6363,112.2657 176.1253,112.7277 175.3133,112.7947 C174.5283,112.8597 173.7253,112.6767 172.9283,112.6237 C172.0723,112.5677 171.2143,112.5347 170.0593,112.4777 C170.3563,113.7477 170.5653,114.7387 170.8213,115.7157 C171.5893,118.6507 172.3763,121.5807 173.1583,124.5137 C173.2403,124.8227 173.3623,125.1227 173.4143,125.4367 C173.5313,126.1297 173.8353,127.0327 172.8573,127.2277 C171.8983,127.4177 171.7923,126.4707 171.6093,125.7897 C170.5653,121.9357 169.5423,118.0737 168.4913,114.2217 C167.9643,112.2927 167.9443,112.1567 165.9343,112.1397 C158.4203,112.0727 150.8913,111.8157 143.3943,112.1737 C132.8583,112.6787 122.3393,113.6017 111.8233,114.4667 C90.7463,116.1987 69.9733,119.6517 49.6733,125.7037 C48.6793,125.9997 47.6643,126.2297 46.6633,126.5047 C44.3223,127.1487 44.3333,127.1537 44.0173,129.5137 C43.5503,132.9977 43.0783,136.4817 42.5773,139.9597 C42.4933,140.5447 42.2483,141.1067 42.0153,141.8857" id="Fill-6"/></g></g></g></g><g id="Head" transform="translate(111.000000, 0.000000) scale(1 1)" fill="#000"><g id="Head/Low Pompadour" stroke="none" stroke-width="1" fill="none" fill-rule="evenodd"><path d="M27.8320713,16.475193 L27.7800713,16.238193 C27.7160713,15.962193 27.3870713,15.171193 26.8550713,14.270193 C27.8250713,14.830193 28.3900713,15.759193 28.7150713,16.939193 C28.8850713,17.554193 29.1260713,18.150193 29.2860713,18.766193 C29.5910713,19.936193 30.0890713,20.900193 30.7090713,21.734193 C30.6570713,22.162193 30.6030713,22.591193 30.5460713,23.020193 C29.4990713,21.727193 28.5070713,19.689193 27.8320713,16.475193 M20.7020713,11.105193 C17.2690713,13.070193 14.7960713,11.665193 13.5770713,10.588193 C15.1640713,11.478193 16.6520713,11.473193 18.4170713,10.441193 C20.0190713,9.50319302 21.3630713,9.65819302 22.4440713,10.680193 C21.8560713,10.651193 21.2730713,10.778193 20.7020713,11.105193 M36.6040713,25.532193 C37.3250713,25.765193 38.2370713,25.409193 39.0610713,25.324193 C37.0940713,23.300193 37.0640713,23.165193 38.2710713,21.006193 C38.5050713,20.588193 38.7660713,20.181193 38.9580713,19.746193 C39.6380713,18.208193 39.5560713,17.341193 38.1460713,16.461193 C36.8000713,15.619193 36.6360713,14.508193 36.7720713,13.186193 C36.8710713,12.236193 37.0460713,11.293193 37.2010713,10.350193 C37.6490713,7.61819302 36.8660713,5.31119302 34.8560713,3.40419302 C32.6220713,1.28319302 30.0010713,0.257193018 26.8980713,0.0381930178 C21.4170713,-0.346806982 17.1470713,2.23519302 12.9900713,5.24319302 C12.5320713,7.12219302 10.7220713,7.36419302 9.37707129,7.99919302 C7.09307129,9.07919302 5.98907129,10.943193 5.57907129,13.190193 C5.20207129,15.250193 5.47207129,17.229193 6.00507129,19.251193 C5.97707129,19.505193 5.94707129,19.762193 5.90907129,20.026193 C5.44807129,19.945193 5.22007129,19.933193 5.01007129,19.864193 C2.10407129,18.903193 -0.107928707,20.537193 0.00407129252,23.596193 C0.0870712925,25.871193 1.17907129,27.627193 3.19407129,28.576193 C4.37407129,29.131193 4.64507129,29.777193 4.54207129,30.971193 C3.89307129,38.539193 2.66307129,46.013193 1.11607129,53.444193 C0.937071293,54.298193 1.09207129,55.223193 1.09207129,56.179193 C2.66507129,56.125193 2.60407129,55.150193 2.78207129,54.324193 C4.44807129,46.590193 5.72407129,38.797193 6.42507129,30.913193 C6.64407129,28.450193 6.61707129,28.375193 4.24807129,27.148193 C2.42507129,26.204193 1.36707129,24.175193 2.01707129,22.625193 C2.23807129,22.097193 2.78007129,21.445193 3.26507129,21.361193 C3.69507129,21.287193 4.29607129,21.867193 4.73107129,22.258193 C5.01107129,22.509193 6.31607129,23.883193 6.81507129,24.179193 C7.00507129,23.799193 7.27407129,23.432193 7.40907129,23.043193 C7.86207129,22.438193 8.20807129,22.069193 8.38407129,21.646193 C9.30207129,19.437193 10.1960713,17.218193 11.0360713,14.979193 C11.5960713,13.486193 12.0690713,11.950193 12.6100713,10.317193 C13.5200713,11.331193 16.5420713,14.063193 20.9500713,11.538193 C21.6070713,11.163193 22.2820713,11.080193 22.9630713,11.261193 C23.1190713,11.466193 23.2700713,11.689193 23.4130713,11.934193 C23.9780713,12.902193 24.6880713,13.581193 25.7420713,13.835193 C25.8530713,13.862193 25.9510713,13.900193 26.0550713,13.932193 C26.7770713,15.021193 27.2280713,16.075193 27.2940713,16.353193 L27.3430713,16.578193 C28.0950713,20.157193 29.2460713,22.346193 30.4500713,23.678193 C29.8060713,28.170193 28.7760713,32.578193 26.7280713,36.744193 C25.3710713,39.504193 23.9480713,40.119193 20.9250713,39.187193 C18.7010713,38.501193 16.5810713,37.594193 14.7840713,36.048193 C14.2690713,35.606193 13.6240713,34.861193 12.9780713,35.716193 C12.3880713,36.496193 13.1430713,37.064193 13.7020713,37.476193 C14.6610713,38.183193 15.6430713,38.890193 16.7020713,39.427193 C19.3540713,40.770193 22.1180713,41.746193 25.1430713,41.188193 C25.4200713,41.996193 25.6510713,42.588193 25.8270713,43.197193 C26.8840713,46.880193 27.9060713,50.573193 28.9930713,54.247193 C29.2630713,55.160193 29.2000713,56.361193 31.0970713,56.835193 C30.9520713,55.742193 30.9370713,54.971193 30.7390713,54.251193 C29.6410713,50.249193 28.4750713,46.266193 27.3880713,42.261193 C27.1500713,41.388193 26.6420713,40.537193 27.2780713,39.527193 C29.7930713,35.541193 30.9910713,31.078193 31.8480713,26.499193 C31.9390713,26.006193 32.0250713,25.513193 32.1100713,25.020193 C32.4560713,25.210193 32.7930713,25.353193 33.1120713,25.451193 C35.8680713,26.296193 38.6810713,26.306193 38.8000713,26.306193 L38.8000713,25.806193 C38.7710713,25.806193 35.9430713,25.796193 33.2590713,24.972193 C32.9240713,24.870193 32.5670713,24.718193 32.2020713,24.499193 C32.2620713,24.139193 32.3150713,23.779193 32.3710713,23.418193 C33.5830713,24.349193 35.0270713,25.023193 36.6040713,25.532193" id="Fill-1" fill="#000"/></g></g><g id="Face" transform="translate(125.000000, 12.000000) scale(1 1)" fill="#000"><g id="Face/Shiny Eyes" stroke="none" stroke-width="1" fill="none" fill-rule="evenodd"><g id="Group-26" transform="translate(-1.000000, 0.000000)"><polygon id="Fill-1" fill="#000" points="11.3315 5.2702 13.0425 12.0392 10.5475 12.2882"/><polygon id="Stroke-2" stroke="#000" stroke-width=".25" stroke-linejoin="round" points="11.3315 5.2702 13.0425 12.0392 10.5475 12.2882"/><g id="Group-25" transform="translate(0.000000, 0.638800)"><path d="M11.3373,15.9996 C11.2663,15.9996 11.1973,15.9978834 11.1323,15.993592 C9.2943,15.8845899 7.5583,14.3362443 7.1793,12.4677585 C7.1563,12.3561815 7.2433,12.2506125 7.3723,12.2308719 C7.5023,12.212848 7.6243,12.2866604 7.6473,12.3973792 C7.9833,14.0607349 9.5633,15.4923538 11.1653,15.5876234 C12.1113,15.6425536 13.8753,15.270058 15.0443,12.140752 C15.0843,12.0334665 15.2183,11.9751031 15.3433,12.0094345 C15.4683,12.0437659 15.5363,12.1579177 15.4963,12.264345 C14.3043,15.4563058 12.4553,15.9996 11.3373,15.9996" id="Fill-3" fill="#000"/><path d="M5.9848,6.0611 C3.9828,6.0611 2.7328,7.9601 2.0718,9.4061 C5.2708,8.2691 8.3298,8.5031 9.4608,8.6501 C9.0468,7.8691 7.9528,6.1831 6.1978,6.0681 C6.1258,6.0631 6.0548,6.0611 5.9848,6.0611 M1.6338,10.0631 C1.5728,10.0631 1.5118,10.0391 1.4668,9.9941 C1.3998,9.9261 1.3788,9.8261 1.4148,9.7381 C2.0628,8.1151 3.5548,5.4181 6.2288,5.5941 C7.3018,5.6651 8.3128,6.2561 9.1498,7.3041 C9.7708,8.0821 10.0778,8.8321 10.0898,8.8631 C10.1228,8.9441 10.1088,9.0361 10.0538,9.1021 C9.9988,9.1691 9.9118,9.2021 9.8258,9.1851 C9.7858,9.1771 5.7238,8.4351 1.7228,10.0451 C1.6948,10.0571 1.6648,10.0631 1.6338,10.0631" id="Fill-5" fill="#000"/><path d="M14.519,8.1998 C16.242,8.1998 18.264,8.6128 19.086,8.7998 C18.889,8.0188 18.281,6.2088 16.838,5.9868 C15.898,5.8438 15.072,6.0108 14.446,6.4708 C13.9,6.8718 13.521,7.4938 13.34,8.2818 C13.702,8.2238 14.101,8.1998 14.519,8.1998 M19.399,9.3538 C19.379,9.3538 19.36,9.3518 19.341,9.3468 C19.299,9.3368 15.149,8.3098 13.099,8.8138 C13.022,8.8328 12.941,8.8118 12.882,8.7588 C12.824,8.7048 12.795,8.6268 12.808,8.5478 C12.969,7.4718 13.439,6.6218 14.165,6.0878 C14.894,5.5518 15.843,5.3538 16.911,5.5178 C17.823,5.6588 18.584,6.3268 19.114,7.4508 C19.5,8.2728 19.627,9.0468 19.633,9.0788 C19.646,9.1578 19.618,9.2378 19.559,9.2918 C19.515,9.3328 19.457,9.3538 19.399,9.3538" id="Fill-7" fill="#000"/><path d="M13.5209,7.9879 C13.5209,6.9589 14.192426,6.1249 15.0212527,6.1249 C15.849374,6.1249 16.5209,6.9589 16.5209,7.9879 C16.5209,8.2219 16.4799877,8.6169 16.4165031,8.8239 C15.6977164,8.5509 14.1888991,8.2579 13.6055461,8.4809 C13.5533477,8.3119 13.5209,8.1429 13.5209,7.9879" id="Fill-9" fill="#000"/><path d="M2.683,8.3316 C2.683,7.3026 3.57836798,6.4686 4.68252974,6.4686 C5.78763202,6.4686 6.683,7.5366 6.683,8.5656 C5.30326805,8.8716 3.63479873,9.0056 3.00841735,9.2276 C2.82219586,8.9356 2.683,8.6116 2.683,8.3316" id="Fill-13" fill="#000"/><path d="M9.0238,0.5094 C9.0238,0.5094 9.7458,2.4224 9.3998,2.9524 C7.6008,2.8884 2.1548,2.3554 0.1258,5.3534 C0.8028,0.6464 9.0238,0.5094 9.0238,0.5094" id="Fill-17" fill="#000"/><path d="M9.0238,0.5094 C9.0238,0.5094 9.7458,2.4224 9.3998,2.9524 C7.6008,2.8884 2.1548,2.3554 0.1258,5.3534 C0.8028,0.6464 9.0238,0.5094 9.0238,0.5094 Z" id="Stroke-19" stroke="#000" stroke-width=".25" stroke-linejoin="round"/><path d="M12.4203695,2.9695 C13.9149985,2.7635 18.4181114,1.8025 20.3081316,4.6315 C19.432921,-0.0085 12.5733433,0.5025 12.5733433,0.5025 C12.5733433,0.5025 12.0977036,2.4675 12.4203695,2.9695 Z" id="Fill-21" fill="#000"/><path d="M12.7264382,0.369278924 L12.5640572,0.377845401 L12.4518518,0.473092271 L12.3769145,0.81393341 C12.3578815,0.907611827 12.3377913,1.01183026 12.3177033,1.12375413 C12.2770089,1.35049152 12.243661,1.5714067 12.2202144,1.77985423 C12.1527324,2.37978799 12.1705391,2.81199839 12.3152176,3.03708754 L12.4374365,3.09332939 L13.4060397,2.94893571 C14.586362,2.78169478 15.569867,2.72205416 16.5317528,2.81115922 C18.1804175,2.96388458 19.4372234,3.5529317 20.2041935,4.70093975 C20.2797962,4.81410257 20.4561912,4.74206648 20.4309655,4.60833069 C20.0606447,2.64504447 18.6415841,1.42648857 16.5215016,0.807760443 C15.2181274,0.427381714 13.8603989,0.323143983 12.7264382,0.369278924 Z M16.7026252,1.12503704 C18.3526826,1.65988019 19.5126702,2.5879002 20.0079032,3.99095403 L20.038,4.085 L19.962679,4.00151283 C19.1446048,3.14826806 17.9856766,2.69477422 16.554813,2.56222503 C15.6929269,2.48238352 14.8188659,2.51887398 13.8113059,2.64295273 L13.1158984,2.73897054 L12.492,2.832 L12.4704653,2.76251788 C12.4207277,2.56110536 12.4213658,2.22814843 12.4686477,1.80779859 C12.4914305,1.60525338 12.5239819,1.38961387 12.5637715,1.16791804 L12.5931778,1.0093664 C12.6223168,0.857214861 12.6502556,0.725341571 12.673,0.622 L12.736601,0.619072275 C13.8458325,0.573943433 15.1785532,0.676261219 16.4514629,1.04774916 L16.7026252,1.12503704 Z" id="Stroke-23" fill="#000" fill-rule="nonzero"/></g></g><circle id="Oval" fill="#FFF" cx="4.5" cy="7.5" r="1"/><circle id="Oval-Copy-2" fill="#FFF" cx="15.5" cy="7.5" r="1"/><circle id="Oval-Copy" fill="#FFF" cx="16.5" cy="7.5" r="1"/></g></g><g id="Glasses" transform="translate(122.000000, 17.000000) scale(1 1)"><g id="Glasses/Read" stroke="none" stroke-width="1" fill="none" fill-rule="evenodd"><path d="M21.6853283,6.70912951 C21.1497633,7.18018401 20.5187622,7.34890304 19.7530279,7.22434536 C16.7136687,6.73064402 14.9385571,3.7378627 14.2536627,0.988535032 C18.6414779,0.788110403 22.4196249,0.615994338 23.4581942,0.569568294 C23.4469664,1.61019108 23.2942687,5.29030432 21.6853283,6.70912951 L21.6853283,6.70912951 Z M11.6645374,2.30771408 C11.7835518,1.92498231 11.8913385,1.52639774 11.9912657,1.11082803 C12.4370084,1.11875442 13.2229528,1.10063694 13.7091156,1.04062279 C13.797815,1.40070771 13.9022333,1.76305732 14.0257389,2.12427459 L11.6645374,2.30771408 Z M6.71084224,7.43382873 C3.72200803,7.72031139 1.1373738,5.24048125 0.607422729,1.62717622 C3.41548972,1.49129512 7.48668162,1.30106157 11.4332452,1.11875442 C10.9235041,3.17055909 9.56943423,7.15753715 6.71084224,7.43382873 L6.71084224,7.43382873 Z M23.9982503,0.277423921 L23.9903908,0 L23.7164331,0.0124557679 C23.631102,0.016985138 19.2904434,0.212880396 14.1301572,0.449539986 L14.1200522,0.404246285 L13.8775322,0.460863411 C13.1903923,0.492569002 12.489779,0.524274593 11.7835518,0.557112527 L11.5679785,0.542392074 L11.5612418,0.567303609 C7.4271744,0.757537155 3.13591808,0.957961783 0.287431088,1.09723992 L0,1.11196037 L0.0336833306,1.40070771 C0.25262498,3.32002831 1.04306047,5.04911536 2.25790593,6.26978061 C3.37956084,7.39646143 4.77854184,8 6.2448895,8 C6.41667448,8 6.58958225,7.9920736 6.76136723,7.97508846 C8.74980652,7.78372258 10.4193769,5.9527247 11.4826474,2.86822364 L14.2199794,2.65534324 C15.166481,5.07062987 16.9438381,7.31946214 19.666574,7.76220807 C20.5872517,7.91167728 21.3855466,7.69539986 22.040126,7.11790517 C22.9170154,6.3467799 23.5109648,4.95399858 23.8096236,2.98145789 C24.0274425,1.53658882 23.9993731,0.328379335 23.9982503,0.277423921 L23.9982503,0.277423921 Z" id="Fill-1" fill="#F7B500"/></g></g></g></g><g id="Speech" transform="translate(501.000000, 93.000000) scale(2.3106060606060606 2.3118279569892475)" fill="#000"><g id="Speech/Thinking Bubble" stroke="none" stroke-width="1" fill="none" fill-rule="evenodd"><g id="Group-10" transform="translate(5.000000, 1.000000)" fill="#000"><path d="M25.306542,88.9717689 C25.747895,88.5771911 25.9872815,88.4141467 26.1610546,88.1989689 C27.7552563,86.2265911 29.3627857,84.2746578 29.9522815,81.6986578 C30.2460042,80.4137244 30.4828277,80.33808 31.772542,80.5445689 C32.6603739,80.6866578 33.5394916,80.91768 34.4324496,80.9902578 C38.0647689,81.2826133 41.6991387,81.5545244 45.3350462,81.7881022 C52.3080126,82.2353244 59.2440714,81.98488 66.1396345,80.7495244 C70.1046345,80.03908 73.9619874,78.9907911 77.6917017,77.4886356 C80.342895,76.4214356 82.9202731,75.1748356 85.6586092,74.3223022 C86.3583151,74.1040578 87.0600714,73.8316356 87.6910882,73.4646578 C89.9865336,72.1296356 92.2783908,70.78388 94.5236008,69.3675911 C97.8985924,67.2377911 100.892718,64.6561689 103.601836,61.7213689 C107.529416,57.4648356 110.76908,52.6951467 114.077433,47.97708 C114.870945,46.84548 115.490685,45.5881467 116.145794,44.3655689 C118.237223,40.46068 119.207584,36.1969911 120.025702,31.9011022 C120.243559,30.7551911 120.266626,29.5331244 120.150265,28.3693244 C119.7735,24.5927244 118.534534,21.0640133 116.942895,17.6273022 C114.875559,13.1632578 111.631794,9.82723556 107.428945,7.35499111 C104.593214,5.68723556 101.565256,4.45750222 98.4383655,3.45623556 C95.4119454,2.48665778 92.3475924,1.89581333 89.1330462,2.20912444 C87.3471303,2.38341333 85.5396849,2.35121333 83.7414664,2.38085778 C82.4368866,2.40232444 81.1282059,2.30623556 79.8272143,2.37523556 C72.5702647,2.76265778 65.4230126,3.89783556 58.3757185,5.65145778 C51.3402143,7.40252444 44.3841639,9.42601333 37.711584,12.2815911 C34.1407773,13.8098133 30.6612143,15.5537244 27.1621723,17.2460133 C20.8002311,20.3223911 15.139021,24.40668 10.1467605,29.3762133 C6.10179412,33.4037689 3.12509664,38.0763467 2.06964286,43.8064133 C1.52218067,46.7795467 1.46118067,49.7097467 2.22444958,52.6670356 C3.12509664,56.1563911 4.31792857,59.5394356 5.69632353,62.8606356 C6.0387437,63.6855689 6.47138235,64.4915911 6.97732353,65.2281022 C10.0693571,69.7340578 14.102021,73.19888 18.9528025,75.6982133 C20.6618277,76.5783467 22.0858445,77.6348133 23.0874748,79.3506133 C24.5740294,81.8959467 25.3957353,84.5619022 25.3080798,87.5053911 C25.2962899,87.8984356 25.306542,88.2930133 25.306542,88.9717689 M31.4506261,81.9588133 C31.1405,83.0331689 30.8293487,84.0415911 30.5586933,85.0602356 C30.122979,86.7009022 29.1644076,88.0251911 27.9485084,89.1404356 C26.9268866,90.0773022 25.7940294,90.89968 24.6678361,91.7143911 C23.9066176,92.26588 23.4724412,92.0062356 23.4524496,91.0417689 C23.4442479,90.6359467 23.5113992,90.22808 23.5488193,89.8222578 C23.8574076,86.4959467 23.3145588,83.3199022 21.9443655,80.2670356 C21.275416,78.7756133 20.2425168,77.7380578 18.7293067,77.0961022 C15.0139454,75.5198356 11.8844916,73.0895022 9.09643277,70.2293244 C6.62055042,67.6891022 4.66906303,64.8095022 3.44086134,61.4269689 C2.29570168,58.2739244 1.18386134,55.1239467 0.487743697,51.8369911 C-0.585651261,46.7647244 0.136609244,41.9306356 2.40847479,37.3076356 C5.20832353,31.6113022 9.40297059,27.1073911 14.3895924,23.2367467 C18.6196092,19.9533689 23.1894832,17.2792356 28.0474412,15.0553911 C30.3172563,14.0157911 32.5465756,12.8893022 34.8051134,11.82568 C39.9916513,9.38205778 45.3001891,7.21341333 50.7353403,5.40561333 C56.8353403,3.37701333 63.0722059,1.79512444 69.4495252,0.894546667 C73.3417353,0.345102222 77.2677773,0.0793244444 81.2122731,0.239813333 C83.0950714,0.315968889 84.9870966,0.211702222 86.8652815,0.332835556 C90.457105,0.564368889 94.0586681,0.739168889 97.5530966,1.75781333 C102.661718,3.24770222 107.527366,5.19708 111.711761,8.60159111 C114.430105,10.8131689 116.508718,13.4888356 118.055761,16.6127467 C119.752996,20.0392356 121.060651,23.5853244 121.598374,27.3885022 C121.834685,29.0583022 121.836223,30.7229911 121.543525,32.3881911 C120.626475,37.6127689 119.21271,42.6921911 116.416962,47.2421022 C114.451122,50.4411467 112.280752,53.5277467 110.031954,56.5387022 C107.412542,60.0454356 104.579887,63.3967911 101.282811,66.3050133 C99.8782731,67.5439467 98.3445588,68.6423244 96.8354496,69.75808 C93.9699874,71.8781689 91.0348109,73.9042133 87.7049286,75.2433244 C83.2288613,77.0434578 78.7712479,78.90748 74.2188025,80.4955022 C69.3695588,82.1877911 64.2783655,82.8440578 59.1861471,83.4359244 C53.7448445,84.0676578 48.2963655,84.0538578 42.8622395,83.5739244 C39.3201387,83.2611244 35.8098193,82.5895244 32.2851471,82.0789244 C32.0109034,82.0390578 31.7356345,81.9997022 31.4506261,81.9588133" id="Fill-1"/><path d="M47,42.6838357 C46.9785947,44.6567791 46.2249294,45.6610036 44.4970747,45.9604161 C43.0594358,46.2089551 41.7601845,45.2704424 41.2638805,43.6138695 C40.8054091,42.0839507 40.9557439,40.5863579 41.626277,39.1799138 C42.2788894,37.8105649 43.594568,38.1232258 44.6966914,38.0087602 C45.5643523,37.9181415 46.0765858,38.5424034 46.4011497,39.3330646 C46.5121585,39.6028009 46.6107224,39.8879052 46.656022,40.1761892 C46.7869427,41.0092451 46.8874978,41.8476003 47,42.6838357" id="Fill-4"/><path d="M71.0157085,30.9906383 C70.9722476,30.0425456 71.2125315,29.0079837 72.2555933,28.3387418 C72.7496489,28.0225404 73.2377099,27.9002554 73.8366712,28.0905902 C76.4787948,28.9317474 77.7021944,31.7898399 76.588696,34.3823847 C75.7909135,36.240196 73.5409372,36.5824917 72.4788925,34.9656689 C71.7195754,33.8098452 70.8738361,32.7123499 71.0157085,30.9906383" id="Fill-6"/><path d="M62,38.3772443 C61.9597664,38.7654688 61.9539495,39.0851831 61.8904482,39.3914933 C61.5496742,41.048646 60.1696121,41.5262317 58.9659964,40.3476575 C57.8055227,39.2117781 57.3139938,37.6881706 57.0304194,36.1223647 C56.8879051,35.3340008 57.2548552,34.4801055 57.9485218,34.2343623 C58.7401064,33.9533712 59.6960187,33.8123791 60.4876032,34.4766303 C61.1420057,35.0257049 61.5438573,35.7440692 61.7343611,36.5681775 C61.8763906,37.1812943 61.920987,37.8172478 62,38.3772443" id="Fill-8"/></g></g></g></g></svg>