<svg viewBox="192.5 36.703539823008896 910 681.6371681415931" xmlns="http://www.w3.org/2000/svg" overflow="visible" xmlns:xlink="http://www.w3.org/1999/xlink" width="910px" height="681.6371681415931px"><g id="Master/Scenes/Hero" stroke="none" stroke-width="1" fill="none" fill-rule="evenodd"><path d="M470.105601,697.985907 L931,697.985907 C862.039546,260.661969 799.540547,42 743.503001,42 C659.446683,42 628.674818,178.155071 582.566902,230.738444 C536.458987,283.321818 509.651166,306.539139 434.263458,268.638791 C358.875749,230.738444 202,246.809698 202,373.820319 C202,458.494067 224.046406,566.411437 268.139219,697.572431 L470.105601,697.985907 Z" id="Background" fill="#FBF9FF"/><g id="Rock" transform="translate(540.000000, 318.000000) scale(1.1720841300191205 1.1728395061728396)"><g id="Rock/Purple" stroke="none" stroke-width="1" fill="none" fill-rule="evenodd"><path d="M52,324.086726 C82.8559591,293.173236 116.522626,253.221413 153,204.231258 C207.716061,130.746025 426.451526,270.233656 451.297041,287.46321 C467.860718,298.94958 474.10285,311.197806 470.023438,324.207891 L52,324.086726 Z" id="Path-8" stroke="#979797" fill="#6236FF"/></g></g><g id="Plant" transform="translate(223.000000, 278.000000) scale(1.1761363636363635 1.16991643454039)" fill="#000"><g id="Plant/Foliage Short" stroke="none" stroke-width="1" fill="none" fill-rule="evenodd"><path d="M-14.3733,301.6693 C12.3667,320.6793 39.5537,338.3813 69.6767,351.1823 C68.4197,349.8993 67.1557,348.4093 65.5657,347.8613 C64.2127,347.3963 63.4347,346.6763 62.6327,345.6843 C61.3337,344.0743 60.0457,342.4423 58.6167,340.9503 C52.8727,334.9473 46.9317,329.1263 41.3347,322.9903 C32.8897,313.7313 23.6347,305.4333 13.2597,298.4103 C9.2827,295.7193 5.1307,293.3183 0.3227,292.3503 C-1.9693,291.8883 -4.1343,292.1893 -6.1563,293.3523 C-9.5573,295.3083 -12.1263,298.0923 -14.3733,301.6693 M70.7117,355.1263 C70.7557,354.9073 70.8007,354.6883 70.8447,354.4693 C39.9097,341.2303 11.8057,323.1763 -15.6413,303.6953 C-16.1263,304.4063 -16.5793,304.9513 -16.9033,305.5653 C-18.0953,307.8253 -19.2273,310.1173 -20.4133,312.3813 C-21.9303,315.2773 -21.5523,317.7683 -19.3263,320.2623 C-11.9333,328.5503 -3.2613,335.1033 6.7807,339.8033 C14.3897,343.3633 22.2887,346.1713 30.3877,348.4093 C40.7327,351.2703 51.3097,352.8643 61.9427,354.1333 C64.8637,354.4813 67.7887,354.7963 70.7117,355.1263 M74.6847,351.3983 C74.8127,351.2673 74.9397,351.1353 75.0667,351.0033 C74.8577,350.3273 74.6637,349.6483 74.4397,348.9783 C70.5807,337.4723 66.9167,325.9063 64.0957,314.0953 C58.3287,289.9543 52.6037,265.8033 46.8557,241.6573 C46.6647,240.8563 46.4097,240.0713 46.1067,239.0063 C45.4727,239.6803 45.0427,240.0333 44.7397,240.4743 C42.5767,243.6333 40.3577,246.7593 38.3157,249.9953 C36.2167,253.3253 35.4177,256.9993 35.5877,260.9713 C35.9127,268.5663 36.7177,276.0953 38.1147,283.5653 C40.2567,295.0103 43.5647,306.0463 49.2207,316.3063 C52.3037,321.8993 55.4297,327.4863 58.1527,333.2573 C60.8537,338.9783 64.7537,343.5563 69.6937,347.3713 C71.3857,348.6773 73.0227,350.0543 74.6847,351.3983 M78.3567,351.6253 C78.5337,351.5983 78.7107,351.5703 78.8867,351.5433 C78.7617,348.3583 78.6737,345.1723 78.5057,341.9893 C77.7257,327.1423 76.9807,312.2923 76.1027,297.4503 C75.6687,290.1123 75.1487,282.7713 74.3467,275.4663 C73.3337,266.2563 72.0707,257.0713 70.7617,247.8983 C70.0057,242.6053 68.9997,237.3453 67.9917,232.0923 C67.5357,229.7203 66.6077,227.4983 64.8167,225.7543 C62.5417,223.5383 61.1997,223.3923 58.8597,225.5593 C55.8707,228.3253 53.1177,231.3473 50.1347,234.1203 C48.5407,235.6043 48.2047,237.0273 48.7567,239.1783 C51.9917,251.7903 55.1037,264.4363 58.1577,277.0943 C60.7617,287.8823 63.1687,298.7183 65.7747,309.5063 C68.6477,321.3873 72.0317,333.1243 76.0407,344.6783 C76.8407,346.9833 77.5867,349.3093 78.3567,351.6253 M80.8687,354.6433 C80.9097,354.8963 80.9497,355.1493 80.9897,355.4033 C82.4577,355.6283 83.9237,356.0283 85.3947,356.0453 C90.9827,356.1063 96.5797,356.2053 102.1627,355.9873 C110.2217,355.6743 118.2677,355.0623 126.3227,354.6463 C131.8287,354.3613 137.3407,354.1963 142.8497,353.9793 C153.3087,353.5663 163.7647,353.0813 174.2267,352.7613 C187.6427,352.3503 201.0697,352.1453 214.3417,349.8143 C218.1917,349.1373 222.0247,348.3843 225.6177,346.7133 C228.1517,345.5353 229.5297,343.7273 229.2057,340.8703 C228.8637,337.8573 228.5687,334.8313 228.0437,331.8483 C227.5777,329.2023 226.8227,326.6073 226.1757,323.9073 C225.5227,324.0343 225.1437,324.1013 224.7667,324.1823 C210.7977,327.1873 196.8337,330.2153 182.8597,333.1923 C170.3697,335.8553 157.8807,338.5183 145.3697,341.0783 C131.8497,343.8453 118.2997,346.4733 104.7717,349.2023 C97.5737,350.6543 90.3917,352.1803 83.2107,353.7133 C82.4007,353.8863 81.6477,354.3263 80.8687,354.6433 M84.1497,350.4993 C84.2387,350.7083 84.3267,350.9163 84.4147,351.1253 C131.3417,341.1123 178.5377,332.3733 225.3377,321.2263 C224.0227,316.9743 222.5037,313.0373 220.3717,309.3603 C218.8387,306.7153 216.6917,304.6643 213.7747,303.7143 C211.2087,302.8783 208.5637,302.1393 205.8957,301.7903 C198.4897,300.8213 191.0447,301.0253 183.6457,301.8563 C168.3097,303.5793 153.5187,307.5103 139.3267,313.5523 C120.0357,321.7633 102.5927,332.8563 87.4197,347.4043 C86.3367,348.4433 85.2397,349.4683 84.1497,350.4993 M228.2107,320.6963 C229.7967,320.4093 231.1227,320.1713 232.4477,319.9263 C232.8407,319.8543 233.2277,319.7383 233.6217,319.6843 C234.3517,319.5833 235.1367,319.4923 235.3937,320.4243 C235.6477,321.3523 234.9867,321.7183 234.2507,321.9303 C233.4837,322.1503 232.6977,322.3053 231.9237,322.5033 C231.0137,322.7353 230.1067,322.9833 229.0577,323.2623 C229.1907,324.0573 229.2847,324.6663 229.3987,325.2733 C230.1797,329.4293 230.9707,333.5843 231.7377,337.7433 C231.8547,338.3693 231.8567,339.0153 231.9227,339.6503 C232.5537,345.7083 229.4957,347.9753 225.5517,349.6143 C220.9387,351.5313 216.0227,352.2543 211.1307,353.0183 C199.3287,354.8613 187.4117,355.0153 175.5127,355.4473 C164.5677,355.8463 153.6227,356.2493 142.6797,356.6953 C133.7327,357.0593 124.7897,357.4813 115.8467,357.8923 C108.4207,358.2333 100.9997,358.7283 93.5717,358.9013 C89.5957,358.9943 85.6037,358.5893 81.6227,358.3433 C77.1587,358.0653 72.6897,357.8083 68.2387,357.3773 C48.6897,355.4823 29.4727,352.1993 11.1897,344.5373 C-1.2653,339.3173 -12.1453,332.0263 -21.0543,321.8523 C-21.6313,321.1913 -22.1853,320.5023 -22.6813,319.7793 C-24.2683,317.4663 -24.3773,314.9583 -23.2553,312.4823 C-21.9363,309.5763 -20.4953,306.7183 -18.9433,303.9293 C-18.2713,302.7223 -17.8803,301.6873 -18.7863,300.5853 C-18.6183,300.3313 -18.5313,300.0863 -18.4443,300.0853 C-16.6283,300.0763 -15.8153,298.7563 -14.7873,297.5473 C-13.2413,295.7313 -11.5813,293.9713 -9.7573,292.4413 C-6.2623,289.5123 -2.2433,288.8283 2.1707,290.0563 C5.9927,291.1183 9.4717,292.8823 12.7687,295.0043 C23.3797,301.8323 32.9007,309.9583 41.4387,319.2483 C44.8987,323.0153 48.4037,326.7403 51.9057,330.4683 C52.7727,331.3913 53.7047,332.2503 54.9257,332.9733 C54.7747,332.5143 54.6867,332.0233 54.4657,331.6003 C51.3237,325.5793 48.1127,319.5943 45.0217,313.5483 C39.9847,303.6983 37.3687,293.0943 35.4217,282.2853 C34.1447,275.1933 33.5357,268.0373 33.1877,260.8513 C32.9917,256.8353 33.7287,252.9853 35.8707,249.5973 C38.4707,245.4863 41.2787,241.4983 44.1687,237.5843 C45.0677,236.3663 45.4997,235.3653 45.0017,233.9093 C44.5387,232.5553 44.2477,231.1383 43.9287,229.7373 C43.7127,228.7943 42.9327,227.4813 44.4087,227.1213 C45.8307,226.7743 45.8317,228.3393 46.1637,229.2333 C46.6317,230.4973 46.9537,231.8143 47.4217,233.3873 C48.0587,232.8573 48.5497,232.5053 48.9767,232.0863 C51.5407,229.5653 54.0247,226.9583 56.6607,224.5153 C60.6677,220.8013 64.2917,221.2213 67.5647,225.6423 C69.3757,228.0873 70.2097,230.9413 70.7047,233.8573 C72.0547,241.8103 73.3547,249.7723 74.5157,257.7533 C75.5147,264.6293 76.4317,271.5233 77.1367,278.4333 C77.8667,285.5843 78.3787,292.7623 78.8437,299.9373 C79.5107,310.2243 80.0667,320.5193 80.6317,330.8123 C80.9027,335.7603 81.0917,340.7133 81.2997,345.6653 C81.3427,346.6893 81.3057,347.7153 81.3057,348.8403 C82.6137,348.8693 83.0567,348.0043 83.6717,347.4723 C89.2317,342.6663 94.5657,337.5713 100.3687,333.0793 C112.9467,323.3423 126.8037,315.7583 141.5637,309.8333 C152.9487,305.2633 164.7197,302.0383 176.8227,300.0973 C186.2447,298.5863 195.7437,298.0693 205.2587,299.0553 C208.0167,299.3403 210.7557,300.0543 213.4317,300.8213 C218.1517,302.1753 221.5317,305.2463 223.6187,309.6503 C224.9507,312.4603 226.0627,315.3743 227.2637,318.2453 C227.5687,318.9773 227.8357,319.7243 228.2107,320.6963" id="Fill-1" fill="#000"/></g></g><g id="Plant" transform="translate(976.000000, 278.000000) scale(1.1761363636363635 1.16991643454039)" fill="#000"><g id="Plant/Foliage Mid 2" stroke="none" stroke-width="1" fill="none" fill-rule="evenodd"><path d="M10.2189,99.6654 C6.7389,101.4764 4.3269,104.1034 3.6179,108.0304 C6.7459,105.9764 8.5589,102.8784 10.2189,99.6654 M29.7299,198.6874 C32.5299,200.3404 35.1289,199.7894 36.7369,197.3734 C37.6459,196.0074 37.6119,195.1644 36.6099,194.1854 C35.5189,193.1194 34.5519,193.0434 33.2209,194.0704 C31.6879,195.2534 30.6009,196.8014 29.7299,198.6874 M26.6729,121.3734 C26.4869,121.6544 26.3119,121.8294 26.2379,122.0404 C25.2669,124.8234 24.2239,127.5864 23.3669,130.4054 C22.0119,134.8684 23.8819,137.5074 27.3879,139.8694 C28.3609,140.5254 29.4029,140.4304 30.2619,139.6624 C30.8459,139.1414 31.4399,138.5194 31.7449,137.8174 C33.1479,134.6114 34.4459,131.3594 35.7879,128.1274 C36.2489,127.0194 35.9499,126.0844 35.1239,125.3064 C32.7409,123.0614 29.9899,121.6144 26.6729,121.3734 M-9.6811,23.9584 C-8.4421,25.2064 -7.2991,26.3054 -6.2141,27.4594 C-3.4231,30.4304 -0.7551,33.5244 2.1609,36.3654 C3.5609,37.7284 5.3269,38.7944 7.0799,39.6974 C8.9619,40.6674 10.9729,40.5394 12.7619,39.2474 C16.3069,36.6854 16.7869,34.6844 14.5899,30.8944 C11.5349,25.6294 7.3179,21.3994 2.4829,17.7604 C1.9769,17.3794 1.3869,17.1084 0.8259,16.8024 C-0.1861,16.2494 -1.2341,16.3214 -2.1361,16.9404 C-4.9671,18.8844 -7.5331,21.1194 -9.6811,23.9584 M77.5009,346.2274 C77.6169,346.2364 77.7339,346.2464 77.8499,346.2554 C77.9869,345.9804 78.1819,345.7204 78.2519,345.4294 C80.2319,337.2804 82.4479,329.1794 84.1129,320.9664 C86.9389,307.0304 89.4799,293.0334 91.1839,278.9064 C92.3029,269.6294 93.3409,260.3394 94.2439,251.0374 C94.7919,245.3944 95.0819,239.7214 95.3659,234.0564 C95.9329,222.7834 95.7249,211.5084 94.9849,200.2544 C94.4389,191.9634 93.5699,183.6934 92.8529,175.4134 C92.1429,167.2134 91.3629,159.0174 90.7559,150.8094 C89.4859,133.5954 88.2749,116.3764 87.1139,99.1554 C86.7049,93.0944 86.4549,87.0204 86.2429,80.9494 C85.9549,72.7134 86.1299,64.4784 86.8609,56.2694 C87.5119,48.9484 88.2379,41.6344 89.0189,34.3274 C89.6729,28.2114 90.3679,22.0984 91.2009,16.0054 C92.3149,7.8524 93.6669,-0.2686 94.7519,-8.4246 C95.7639,-16.0246 96.6869,-23.6436 97.4049,-31.2756 C97.8449,-35.9616 97.9619,-40.6896 97.9739562,-45.3996 C97.9849,-49.5646 96.3799,-53.2126 93.3769,-56.1276 C92.5479,-56.9336 91.4489,-57.7486 90.3629,-57.9446 C87.8699,-58.3956 85.3099,-58.4676 82.5619,-58.7116 C82.1249,-56.6866 81.7029,-54.9166 81.3649,-53.1316 C79.6999,-44.3426 77.7949,-35.5886 76.4679,-26.7476 C74.5339,-13.8616 73.7979,-0.8436 72.9699,12.1554 C72.0599,26.4454 71.6209,40.7524 72.0329,55.0654 C72.4019,67.8494 72.9519,80.6294 73.6049,93.4014 C73.8359,97.9364 74.5809,102.4454 75.1529,106.9584 C75.2399,107.6454 75.4479,108.3004 74.6149,108.5104 C73.7779,108.7214 73.5049,107.9954 73.3569,107.3784 C73.0579,106.1394 72.7109,104.8894 72.6199,103.6264 C72.1259,96.7744 71.6549,89.9214 71.2729,83.0624 C70.9659,77.5574 70.7189,72.0444 70.5869,66.5314 C70.3539,56.7864 69.9459,47.0324 70.1319,37.2924 C70.3549,25.7104 71.0139,14.1314 71.7029,2.5634 C72.1829,-5.4876 72.8879,-13.5336 73.7529,-21.5546 C74.8589,-31.8106 77.0269,-41.8966 79.0869,-51.9926 C79.5149,-54.0876 79.9299,-56.1866 80.3639,-58.3526 C78.5109,-58.9106 76.6399,-59.0996 75.2639,-58.3626 C73.0479,-57.1786 70.7459,-55.7486 69.5899,-53.3616 C68.3569,-50.8166 66.5399,-48.5136 66.1789,-45.5636 C66.1119,-45.0116 65.7019,-44.2426 65.2489,-44.0516 C64.2569,-43.6316 64.0789,-42.8216 63.8089,-41.9996 C56.9949,-21.2876 52.9899,-0.0936 52.9545036,21.7664 C52.9329,36.0104 53.8269,50.2124 55.5889,64.3414 C57.1299,76.7044 58.7819,89.0614 60.7299,101.3664 C63.0149,115.7994 65.8249,130.1494 68.1239,144.5804 C70.2979,158.2264 72.3019,171.9034 74.0099,185.6134 C75.5019,197.5834 76.6779,209.6014 77.6219,221.6264 C78.4669,232.3814 78.9029,243.1714 79.3449,253.9524 C80.3009,277.2234 79.5819,300.4774 78.4499,323.7244 C78.0849,331.2224 77.8149,338.7264 77.5009,346.2274 M83.1969,-60.9306 C85.1329,-60.7396 87.0209,-60.4546 88.9169,-60.3916 C91.9639,-60.2876 94.1959,-58.8296 96.0439,-56.5436 C99.0529,-52.8206 100.2829,-48.4846 100.1469,-43.8106 C99.9919,-38.5426 99.6929,-33.2696 99.2029,-28.0226 C98.6319,-21.9006 97.8549,-15.7956 97.0429,-9.6996 C96.0839,-2.4966 94.9439,4.6834 93.9759,11.8864 C93.0189,19.0094 92.1079,26.1404 91.3099,33.2824 C90.5099,40.4294 89.7339,47.5834 89.2109,54.7544 C88.7399,61.2044 88.3059,67.6864 88.4309,74.1444 C88.6379,84.8484 89.2279,95.5464 89.8019,106.2394 C90.3589,116.6124 90.9679,126.9864 91.7919,137.3414 C92.8689,150.8814 94.1529,164.4054 95.3999,177.9334 C96.9349,194.5754 98.2469,211.2284 97.8309,227.9634 C97.5699,238.5134 96.9509,249.0424 95.6669,259.5234 C94.5009,269.0404 93.4679,278.5744 92.1589,288.0704 C91.2329,294.7944 90.0839,301.4944 88.7819,308.1554 C86.8229,318.1854 84.6979,328.1844 82.5279,338.1704 C81.6289,342.3024 80.3859,346.3564 79.3799,350.4674 C78.7239,353.1454 79.3849,353.9674 82.2229,354.3254 C83.4569,354.4814 83.7389,354.9264 83.2649,356.0554 C83.0809,356.4934 82.8249,356.9084 82.5589,357.3064 C81.5729,358.7724 81.2149,358.8214 79.7229,357.7564 C79.5319,357.6194 79.3269,357.5014 79.1509,357.3884 C78.6159,357.6084 78.1199,357.8124 77.7109,357.9814 C77.5099,357.8744 77.3939,357.8514 77.3769,357.7974 C76.7319,355.7174 74.3659,354.3414 74.7539,351.8964 C74.9799,350.4784 74.6129,349.3814 73.8119,348.3374 C69.3349,342.5034 64.8599,336.6694 60.3589,330.8554 C53.9479,322.5764 47.2769,314.4864 41.1479,306.0054 C32.4599,293.9834 26.1269,280.7604 22.5339,266.3054 C19.6569,254.7274 18.8659,242.9874 19.7029,231.0994 C20.2949,222.6954 21.5989,214.4344 24.1099,206.3854 C24.7279,204.4054 25.4479,202.4494 26.2689,200.5464 C26.6869,199.5764 26.5119,198.9654 25.8739,198.1934 C20.3319,191.4994 17.6659,183.6794 16.9029,175.1124 C16.1419,166.5764 16.8859,158.1734 19.3719,149.9834 C20.3859,146.6444 21.9279,143.4654 23.3649,139.8764 C23.3049,139.7894 23.0409,139.3114 22.6969,138.9014 C20.4849,136.2624 20.1479,133.2644 21.1559,130.1044 C22.0039,127.4424 23.0469,124.8434 23.9919,122.2114 C24.1759,121.7014 24.5049,121.1374 24.4219,120.6574 C24.1679,119.1884 25.0029,118.9364 26.0809,119.0944 C27.5789,119.3114 29.0529,119.6904 30.5389,119.9864 C30.9209,120.0614 31.3139,120.0814 31.7369,120.1314 C32.5049,118.7944 33.2389,117.5204 33.9979,116.1994 C35.0579,117.1664 35.0579,117.1664 33.6589,121.2334 C34.5309,121.9474 35.4719,122.6684 36.3579,123.4514 C37.9469,124.8554 38.5799,126.6274 37.8319,128.6394 C36.6359,131.8534 35.2979,135.0164 34.0129,138.1974 C33.9239,138.4184 33.7879,138.6214 33.6629,138.8264 C31.4909,142.3954 29.4489,143.1114 25.2339,141.6134 C24.6879,142.5884 24.0599,143.5794 23.5569,144.6314 C21.2929,149.3654 20.0619,154.4104 19.3749,159.5754 C18.4539,166.5014 18.3199,173.4394 19.7179,180.3374 C20.7789,185.5674 22.7639,190.4174 25.7829,194.8294 C26.1449,195.3564 26.5379,195.8624 26.9449,196.3544 C27.1419,196.5954 27.4039,196.7824 27.7949,197.1364 C28.3019,196.4494 28.7269,195.8044 29.2219,195.2184 C29.9949,194.3064 30.7319,193.3364 31.6329,192.5634 C33.8839,190.6324 35.7879,190.6784 37.7999,192.5654 C39.7719,194.4164 39.9559,196.4764 38.3569,198.7764 C36.4799,201.4774 33.2459,202.5434 30.1259,201.4854 C29.6789,201.3344 29.2389,201.1624 28.5679,200.9174 C28.1919,201.7424 27.7959,202.5014 27.4909,203.2964 C24.9849,209.8254 23.6329,216.6364 22.6569,223.5284 C21.7259,230.1134 21.4739,236.7404 21.6479,243.3864 C22.1099,260.9954 26.8749,277.4034 35.3889,292.7754 C39.9359,300.9834 45.3429,308.6024 51.1789,315.9274 C58.2029,324.7434 65.2569,333.5364 72.3019,342.3374 C72.5419,342.6384 72.8149,342.9134 73.4679,343.0644 C73.2279,342.1374 73.0149,341.2014 72.7419,340.2844 C68.3469,325.5064 63.9589,310.7274 59.5389,295.9564 C56.0659,284.3484 53.9349,272.5244 53.2519,260.4064 C52.7189,250.9464 53.3149,241.5544 54.1759,232.1584 C55.4669,218.0764 57.4979,204.0474 57.4579,189.8674 C57.4089,172.4434 55.5479,155.2464 50.4629,138.5084 C47.0629,127.3134 42.1759,116.8534 34.4239,107.9564 C32.1809,105.3824 29.6349,103.0244 26.9929,100.8544 C24.0689,98.4524 20.5329,97.4644 16.7229,97.4474 C14.9409,97.4394 13.8699,98.1294 12.9059,99.7104 C11.0799,102.6964 8.9809,105.5274 6.8309,108.2964 C6.1359,109.1914 5.0089,109.8864 3.9369,110.3274 C2.1399,111.0664 0.8929,110.0884 1.0569,108.1754 C1.1309,107.3194 1.3949,106.4414 1.7529,105.6574 C3.6259,101.5614 6.6479,98.5434 10.7739,96.7864 C12.1619,96.1954 12.9519,95.3614 13.5439,94.0644 C16.4259,87.7454 18.0379,81.0934 18.8079,74.2244 C19.7669,65.6564 19.5169,57.1424 17.4269,48.7404 C16.7339,45.9564 15.8579,43.2274 14.1279,40.7764 C13.7239,40.8914 13.4109,40.9304 13.1459,41.0624 C9.2499,43.0044 5.6479,42.2724 2.4099,39.6614 C0.6149,38.2144 -0.9721,36.4974 -2.5651,34.8184 C-5.3711,31.8614 -8.1111,28.8434 -10.8761,25.8484 C-12.2861,24.3204 -12.4171,23.9534 -11.0001,22.4274 C-8.9401,20.2104 -6.7911,18.0514 -4.4831,16.1004 C-1.6551,13.7084 0.7709,13.6024 3.7479,16.0104 C6.8409,18.5114 9.7249,21.3024 12.4749,24.1814 C14.1119,25.8954 15.4849,27.9264 16.6739,29.9894 C18.4609,33.0914 19.3589,36.2974 15.9779,38.8564 C15.9779,39.2434 15.9179,39.4344 15.9869,39.5494 C19.5319,45.5654 20.6579,52.2204 21.2179,59.0444 C21.9699,68.2204 21.1529,77.2454 18.7179,86.1114 C18.0849,88.4164 17.1559,90.6394 16.3519,92.8954 C16.0879,93.6354 15.7919,94.3624 15.4149,95.3454 C16.1959,95.4094 16.7879,95.5104 17.3789,95.4994 C21.8159,95.4214 25.6729,96.9914 29.1179,99.6634 C34.0419,103.4824 37.8739,108.2824 41.3329,113.4104 C48.1829,123.5654 52.2619,134.8824 55.0269,146.6954 C58.4859,161.4714 59.9499,176.4904 59.7729,191.6544 C59.6639,200.9314 58.7789,210.1604 57.8049,219.3864 C56.6219,230.5914 55.3329,241.7994 55.3969,253.0954 C55.4779,267.4974 57.6819,281.5774 61.8649,295.3604 C66.0629,309.1954 70.1979,323.0494 74.3649,336.8944 C74.5869,337.6344 74.8359,338.3674 75.4519,339.0584 C75.5849,337.3474 75.7709,335.6394 75.8439,333.9264 C76.9129,308.8414 78.0639,283.7574 77.3449,258.6394 C76.9069,243.3754 76.2249,228.1204 74.6559,212.9254 C73.2369,199.1774 71.8889,185.4154 70.1089,171.7114 C68.6079,160.1514 66.5919,148.6554 64.6949,137.1494 C61.8229,119.7304 58.5909,102.3674 56.0199,84.9054 C54.2169,72.6634 53.1809,60.3054 51.9459,47.9844 C50.7629,36.1924 50.6579,24.3574 51.1289,12.5244 C51.7239,-2.3986 54.3419,-17.0106 58.4689,-31.3386 C60.3899,-38.0106 62.7379,-44.5596 64.8829,-51.1666 C65.2369,-52.2566 65.8519,-53.0716 66.7419,-53.8536 C68.3549,-55.2676 69.8639,-56.8376 71.2059,-58.5116 C72.4889,-60.1106 74.1399,-60.6416 76.0159,-60.7876 C77.2099,-60.8806 78.4129,-60.8796 79.6129,-60.8656 C80.5809,-60.8556 81.0629,-61.2826 81.2319,-62.2336 C81.4959,-63.7276 81.8469,-65.2046 82.1499,-66.6896 C82.2799,-67.3276 82.3709,-68.0986 83.2249,-67.9896 C84.2489,-67.8596 84.0829,-66.9636 83.9769,-66.2816 C83.7679,-64.9406 83.4459,-63.6186 83.2059,-62.2826 C83.1389,-61.9076 83.1969,-61.5106 83.1969,-60.9306" id="Fill-1" fill="#000"/></g></g><g id="Object" transform="translate(729.000000, 44.000000) scale(1 1)" fill="#000"><g id="Object/Arrow Up" stroke="none" stroke-width="1" fill="none" fill-rule="evenodd"><path d="M254.1496,46.4981 C252.6026,47.0721 251.0536,47.6421 249.5086,48.2231 C245.3976,49.7691 241.2886,51.3201 237.1786,52.8711 C236.9556,52.9551 236.7266,53.1451 236.5176,53.1241 C236.1556,53.0861 235.5586,52.9901 235.5036,52.7951 C235.3946,52.4031 235.4496,51.8231 235.6876,51.5161 C235.9516,51.1751 236.4786,51.0041 236.9206,50.8381 C243.8716,48.2241 250.8256,45.6211 257.7816,43.0241 C257.9176,42.9741 258.0886,43.0181 258.3886,43.0181 C259.5376,43.9981 259.5746,45.4411 259.5456,46.8641 C259.4276,52.5381 259.2646,58.2101 259.1436,63.8841 C259.1276,64.6761 259.3786,65.4921 259.2586,66.2581 C259.1776,66.7691 258.7406,67.4991 258.3146,67.6221 C257.4376,67.8751 257.0596,67.1731 257.0036,66.3581 C256.9706,65.8811 256.9766,65.3991 256.9876,64.9201 C257.0966,60.2061 257.2146,55.4921 257.3206,50.7771 C257.3416,49.8381 257.3246,48.8971 257.3246,47.7581 C256.1896,48.0971 255.9346,49.0091 255.4846,49.6721 C249.0606,59.1251 242.7736,68.6731 236.2196,78.0351 C229.5196,87.6071 222.1906,96.6911 213.8526,104.9171 C206.3776,112.2931 197.9496,118.2461 188.1176,122.1081 C178.6256,125.8371 168.8106,126.9461 158.7026,125.8981 C143.0046,124.2721 129.2956,117.7691 116.4696,108.9511 C109.1646,103.9301 101.7196,99.1051 94.2666,94.3041 C92.1296,92.9271 89.7786,91.8551 87.4606,90.7871 C81.0986,87.8551 74.5526,87.4441 67.8396,89.5001 C56.3316,93.0241 46.6776,99.5221 38.2376,107.9491 C34.6636,111.5191 31.5316,115.4551 28.8626,119.7561 C25.6526,124.9301 23.5326,130.4641 23.1606,136.5931 C23.1186,137.2731 23.0056,138.0501 22.2126,137.9281 C21.7636,137.8581 21.2146,137.1621 21.0806,136.6501 C20.9056,135.9911 21.0576,135.2291 21.1416,134.5211 C21.9466,127.6841 24.6716,121.6001 28.6336,116.0621 C37.9096,103.1021 49.9386,93.7131 64.9346,88.1451 C73.8616,84.8301 82.4486,85.4291 90.8796,89.7761 C99.5726,94.2611 107.6236,99.7441 115.5846,105.3821 C124.3576,111.5971 133.5316,117.0661 143.8776,120.3051 C153.5986,123.3491 163.5026,124.7221 173.6746,123.4221 C182.5406,122.2881 190.6506,119.0851 198.2236,114.4051 C205.9216,109.6471 212.3596,103.4551 218.3526,96.7651 C228.6726,85.2431 237.4196,72.5431 245.9516,59.6861 C248.3376,56.0921 250.7796,52.5341 253.1856,48.9531 C253.6276,48.2961 254.0196,47.6061 254.4346,46.9321 C254.3396,46.7871 254.2446,46.6431 254.1496,46.4981" id="Fill-1" fill="#000"/></g></g><g transform="translate(440.000000, 103.000000) scale(1.2713347921225382 1.269311064718163)" id="Master/Character/Standing Pose"><g id="Master/Character/Standing Pose" stroke="none" stroke-width="1" fill="none" fill-rule="evenodd"><g id="Standing Body" transform="translate(0.000000, 23.000000) scale(1 1)"><g id="Standing Body/Pointing Color" stroke="none" stroke-width="1" fill="none" fill-rule="evenodd"><g id="Group-18"><g id="Group-7" transform="translate(24.000000, 25.347000)"><path d="M87.2904,9.5908 C87.2904,9.5908 51.5194,19.1368 43.3374,25.2768 C33.3034,32.8058 15.1344,40.0378 15.1344,40.0378 L0.8354,49.5768 C0.8354,49.5768 13.2844,70.5948 21.7764,86.2318 C29.4594,78.3978 54.9874,70.7538 56.2024,70.5458 C59.4544,69.9858 55.5694,130.5418 55.5694,130.5418 C55.2544,134.4208 67.9944,120.5928 97.9084,123.7818 C117.2304,125.8418 165.9304,120.0118 165.9304,120.0118 C165.9304,120.0118 163.7044,114.0298 159.9034,96.4328 C159.8494,96.1788 156.0784,75.1618 158.0694,72.4028 C165.4344,72.8568 174.1484,64.0488 183.0804,58.4858 C185.9754,47.2748 188.5794,41.9928 188.5794,41.9928 L147.7184,0.2698 C147.7184,0.2698 120.0754,2.1118 117.2604,7.7428 C119.4414,14.0848 119.3164,31.2688 108.2374,31.5328 C97.1584,31.7988 87.2904,9.5908 87.2904,9.5908" id="Fill-1" fill="#779BE7"/><path d="M166.305,373.1142 C166.305,373.1142 175.846,392.2312 175.055,396.4552 C174.264,400.6782 170.323,420.3872 170.323,420.3872 L263.519,420.3872 C263.519,420.3872 267.457,400.2022 257.039,395.4152 C246.622,390.6292 217.183,386.5332 217.703,383.9992 C218.225,381.4652 219.801,367.4952 219.801,367.4952 L166.305,373.1142 Z" id="Fill-3" fill="#F4D916"/><path d="M46.8529,425.4443 C46.8529,425.4443 51.2899,404.8093 52.2889,396.1733 C53.0539,389.5473 46.4439,384.1893 46.4439,384.1893 L59.3619,384.8703 L90.9909,382.5063 C90.9909,382.5063 89.6049,399.9953 95.3189,402.2493 C101.0329,404.5043 103.3279,408.2413 106.5809,411.7013 C110.6409,416.0173 110.6409,425.0633 110.6409,425.0633 L46.8529,425.4443 Z" id="Fill-5" fill="#F4D916"/></g><g id="Group-17" transform="translate(0.000000, 0.347000)" fill="#000"><path d="M70.7425,450.4941 C71.8215,451.6691 71.8215,451.6691 73.1465,450.4941 L70.7425,450.4941 Z M75.4065,450.3491 C76.5585,452.4581 78.3545,452.4221 80.2245,450.3491 L75.4065,450.3491 Z M97.8705,412.7781 C97.8675,412.9591 97.8635,413.1391 97.8605,413.3181 C99.3265,413.5341 100.7925,413.7491 102.5365,414.0051 C102.4145,413.1281 102.3385,412.5851 102.2465,411.9241 C100.6375,412.2381 99.2545,412.5091 97.8705,412.7781 L97.8705,412.7781 Z M102.9365,416.0431 C100.4095,415.5891 98.0795,415.3741 95.8775,414.7251 C92.8585,413.8381 90.2625,414.7191 87.6925,415.9201 L87.6925,421.7831 C93.0225,420.7441 98.2365,419.7281 103.6255,418.6791 C103.4365,417.9581 103.2015,417.0561 102.9365,416.0431 L102.9365,416.0431 Z M133.8235,450.2721 C116.3845,449.3861 99.2565,449.4771 82.0275,450.4011 C82.8635,451.3441 83.7185,452.1871 84.7445,452.6581 C86.6305,453.5211 87.9405,451.5971 89.7045,451.3131 C90.0435,451.6671 90.3575,452.0151 90.6925,452.3431 C91.7915,453.4171 92.1845,453.4511 93.3225,452.5371 C93.6955,452.2371 93.9715,451.7141 94.3805,451.5901 C94.9225,451.4261 95.8175,451.3011 96.1015,451.5981 C98.0465,453.6321 100.0075,452.9491 101.9565,451.7621 C103.0445,451.0981 103.9365,451.1341 105.0565,451.7681 C107.0435,452.8931 109.0155,452.7821 110.8045,451.1851 C111.1965,450.8351 111.7215,450.6321 112.1815,450.3621 C114.8755,452.4361 117.5965,452.3391 120.3265,450.7831 C121.2015,450.2851 121.8895,450.4551 122.7865,450.7521 C123.8775,451.1121 125.2265,451.4601 126.2335,451.1221 C127.7585,450.6111 128.9245,450.7631 130.3015,451.4701 C131.8445,452.2621 132.5635,451.9361 133.8235,450.2721 L133.8235,450.2721 Z M102.5425,409.9251 C101.9835,408.6761 101.6535,407.7851 101.1935,406.9681 C100.9375,406.5131 100.5325,406.0591 100.0815,405.8101 C95.7835,403.4371 91.3505,403.5791 86.9095,405.3191 C85.4045,405.9091 85.1735,406.6211 85.4245,408.4151 C85.7275,410.5841 86.1775,411.0961 87.8245,411.4701 C90.6765,412.1191 93.4535,412.1901 96.2995,411.2351 C98.2385,410.5851 100.3265,410.3731 102.5425,409.9251 L102.5425,409.9251 Z M113.6475,405.7411 C110.9695,406.2231 108.2485,406.6681 105.5485,407.2191 C104.2055,407.4921 104.3355,408.4131 104.7405,409.3831 C108.5005,409.1441 108.5005,409.1441 109.4555,410.0401 C108.7895,411.0801 108.1725,411.9571 106.6285,411.2871 C106.0675,411.0441 105.2585,411.3761 104.3405,411.4681 C104.4505,412.4731 104.5415,413.3031 104.6115,413.9391 C106.2135,414.9921 107.0965,413.9921 107.9895,413.0641 C109.2095,414.4391 107.7435,415.1441 107.7185,416.1351 C107.1905,416.1931 106.8025,416.2381 106.4135,416.2781 C106.0315,416.3171 105.6505,416.3511 105.2635,416.3881 C105.6725,419.3601 105.8815,419.5461 108.4595,420.0691 C110.0175,420.3861 111.5445,420.8571 113.0905,421.2411 C113.9135,421.4451 114.7465,421.6121 115.4855,421.7761 C114.7885,419.0381 113.8465,416.4761 113.5475,413.8431 C113.2475,411.2021 113.5875,408.4881 113.6475,405.7411 L113.6475,405.7411 Z M111.3745,398.2201 C98.8165,398.8251 86.5075,399.4201 74.0135,400.0221 C74.1675,402.1671 73.7895,404.1501 74.7665,406.1771 C76.8525,406.2471 78.9215,406.2821 80.9855,406.3971 C82.3945,406.4751 83.6425,406.4381 84.4265,404.9381 C84.6885,404.4351 85.3715,404.0551 85.9445,403.8261 C91.3335,401.6841 96.6215,401.2661 101.6645,404.8281 C102.2215,405.2211 102.9495,405.7231 103.5405,405.6561 C106.0475,405.3751 108.5315,404.8991 111.0395,404.4911 C111.1585,402.2511 111.2605,400.3501 111.3745,398.2201 L111.3745,398.2201 Z M71.1495,407.6471 C71.2215,408.2631 71.2195,408.7321 71.3375,409.1691 C71.9615,411.4781 72.5935,413.7871 73.2645,416.0841 C74.3775,419.8881 74.9415,423.7161 74.0315,427.6561 C73.9185,428.1431 74.0155,428.6801 74.0155,429.2871 C77.7085,427.3051 81.2115,425.4421 84.6855,423.5291 C85.0505,423.3291 85.4285,422.8531 85.4915,422.4571 C85.7915,420.5841 86.0345,418.6921 85.4295,416.5351 C84.5315,416.8801 83.7595,417.2911 82.9395,417.4431 C82.5235,417.5201 82.0215,417.1321 81.5585,416.9541 C81.7715,416.5781 81.8925,416.0341 82.2155,415.8581 C83.1125,415.3681 84.0935,415.0321 84.9945,414.6541 C85.3245,413.3311 84.7905,412.7421 83.5945,412.6691 C83.0455,412.6351 82.4885,412.6791 81.9455,412.6091 C81.7555,412.5851 81.4715,412.3461 81.4485,412.1741 C81.4105,411.8991 81.4615,411.4421 81.6365,411.3401 C82.3025,410.9511 83.0335,410.6751 83.7245,410.3621 C83.0805,408.1671 83.0805,408.1521 81.2715,408.0851 C79.9945,408.0381 78.7155,408.0711 77.4385,408.0131 C75.3885,407.9181 73.3405,407.7771 71.1495,407.6471 L71.1495,407.6471 Z M78.6795,175.4361 C83.9855,174.8491 90.7955,169.8361 93.6055,164.6901 C96.0005,160.3071 97.0565,155.3191 95.9555,153.1221 C91.0005,154.8061 86.0125,156.4661 81.0615,158.2321 C80.5275,158.4231 79.8975,159.2051 79.8485,159.7601 C79.3975,164.9061 79.0635,170.0621 78.6795,175.4361 L78.6795,175.4361 Z M168.9425,153.4351 C170.8215,161.6681 184.3205,171.4401 191.5165,169.7401 C189.3415,162.9691 187.1665,156.1981 185.0265,149.5411 C179.7125,150.8281 174.3265,152.1321 168.9425,153.4351 L168.9425,153.4351 Z M201.0515,447.9021 C201.6795,448.3411 202.2315,448.7861 202.8385,449.1401 C205.0395,450.4291 207.3675,450.9631 209.5875,449.3901 C210.9155,448.4501 211.9965,448.4431 213.3075,449.2301 C213.9825,449.6351 214.7635,449.8961 215.5265,450.1141 C217.2945,450.6211 218.9645,450.5001 220.5405,449.3811 C222.3285,448.1091 222.3625,448.1571 224.2015,449.5021 C226.6345,451.2791 229.0355,451.4641 231.5305,449.8301 C232.6275,449.1121 233.5035,449.0271 234.5835,449.7281 C236.6015,451.0391 238.6145,450.7661 240.2995,449.2071 C241.7275,447.8851 242.8855,447.8671 244.5075,448.9081 C246.9855,450.4981 249.8135,451.0331 252.4505,449.4521 C254.2505,448.3731 255.6115,448.6421 257.2915,449.5331 C260.9715,451.4841 264.7665,451.7491 268.4895,449.6031 C269.7065,448.9011 270.6435,448.9051 271.6795,449.9191 C273.5215,451.7221 275.6935,451.9551 278.1185,451.1911 C279.0545,450.8971 280.1555,450.8051 281.1165,450.9791 C284.0925,451.5211 285.7215,450.1711 285.6165,446.7201 L195.1725,446.7201 C195.7185,450.4521 197.1145,450.8081 201.0515,447.9021 L201.0515,447.9021 Z M210.7425,67.3741 C210.5505,67.2971 210.3585,67.2191 210.1675,67.1411 C209.3565,67.6291 208.5145,68.0711 207.7405,68.6101 C200.7295,73.4911 193.7415,78.4021 186.7235,83.2721 C184.7065,84.6731 182.6165,85.9711 180.3795,87.4341 C180.9235,90.6431 181.5015,94.0561 182.0695,97.4021 C182.4075,97.4291 182.5045,97.4681 182.5635,97.4351 C189.3105,93.8071 196.0735,90.2071 202.7865,86.5151 C204.3135,85.6761 205.7115,84.5771 207.0805,83.4851 C207.5235,83.1311 207.7985,82.4511 207.9535,81.8681 C208.4685,79.9431 208.9715,78.0091 209.3345,76.0511 C209.8685,73.1711 210.2785,70.2671 210.7425,67.3741 L210.7425,67.3741 Z M56.8955,107.0811 C50.3375,93.2501 45.8765,78.6251 36.5985,66.3661 C32.7685,69.0151 27.6825,73.5461 26.5845,75.2691 C34.8545,86.6521 40.7925,99.4151 47.7615,111.7311 C50.8465,110.1611 53.6815,108.7181 56.8955,107.0811 L56.8955,107.0811 Z M193.1685,381.3091 C201.4555,380.0641 209.4565,378.5971 217.5215,377.7241 C225.6595,376.8441 233.8615,376.5551 241.9485,376.0121 L241.9485,362.6241 C239.7405,362.8191 237.8355,362.9551 235.9385,363.1621 C228.0875,364.0171 220.2315,364.8431 212.3895,365.7791 C206.2135,366.5161 200.0545,367.4071 193.8865,368.2081 C192.9205,368.3331 192.4725,368.8171 192.4685,369.7731 C192.4475,373.5891 192.3545,377.4081 193.1685,381.3091 L193.1685,381.3091 Z M74.2095,142.2841 C74.6265,138.9211 74.9485,135.6781 75.4475,132.4621 C76.2555,127.2631 77.5035,122.1091 77.9715,116.8841 C78.5095,110.8541 78.4055,104.7681 78.5615924,98.7061 C78.5665,98.5171 78.3675,98.3241 78.2055,98.0261 C72.3015,100.7541 66.4585,103.4531 60.5545,106.1811 C60.5205,106.6401 60.4825,107.1671 60.4575,107.5141 C56.1345,109.6441 51.9775,111.6921 47.7295,113.7861 C49.5065,115.6641 51.2675,117.3021 52.7675,119.1501 C59.3485,127.2651 67.4195,134.0111 73.9145,142.2011 C73.9525,142.2491 74.0565,142.2441 74.2095,142.2841 L74.2095,142.2841 Z M127.5585,374.9991 C126.1715,374.9991 125.2215,374.9681 124.2755,375.0041 C120.3605,375.1531 116.4435,375.2831 112.5325,375.4981 C109.8205,375.6461 107.0645,375.6681 104.4185,376.1961 C99.1005,377.2581 93.8105,378.5031 88.5705,379.8981 C81.3425,381.8241 74.0525,383.0171 66.5485,382.6611 C65.1365,382.5941 63.7185,382.6511 62.1765,382.6511 C61.3505,387.4751 61.3605,392.2291 61.4435,397.1671 C62.3755,397.3381 63.1385,397.5591 63.9125,397.6061 C66.7825,397.7811 69.6615,398.0831 72.5275,398.0031 C82.1955,397.7331 91.8725,397.5081 101.5225,396.9021 C109.3305,396.4131 117.1085,395.4221 124.8935,394.5991 C126.3605,394.4441 127.8005,394.0351 129.2335,393.7471 C128.6665,387.3931 128.1295,381.3841 127.5585,374.9991 L127.5585,374.9991 Z M134.0365,448.3681 C134.2405,447.6021 134.5375,446.9461 134.5725,446.2761 C134.7015,443.7731 134.4655,441.2851 133.3075,439.0311 C131.0115,434.5581 127.8645,430.7441 123.7775,427.8041 C119.6915,424.8641 114.9695,423.3971 110.1295,422.1861 C105.3895,421.0021 100.6675,420.8511 95.8885,421.7541 C88.7795,423.0971 82.4195,426.1991 76.4005,430.0831 C74.6045,431.2421 73.3855,432.9321 72.5725,434.8911 C71.0015,438.6801 69.9625,442.6071 69.6455,446.7071 C69.6055,447.2311 69.6855,447.7651 69.7095,448.2721 C70.0965,448.3921 70.3205,448.5261 70.5425,448.521236 C91.6355,448.0381 112.7265,447.3091 134.0365,448.3681 L134.0365,448.3681 Z M71.7845,159.0021 C71.7165,160.2531 71.5865,161.2561 71.6215,162.2531 C71.7455,165.7641 71.9145,169.2731 72.0915,172.7821 C72.1925,174.8071 71.3855,176.2441 69.6775,177.3891 C66.9575,179.2101 64.3495,181.2001 61.7115,183.1401 C61.1925,183.5221 60.3825,183.8371 61.0285,185.0441 C65.2565,182.2391 69.3975,179.4921 73.9265,176.4881 C73.9265,177.4481 74.0895,177.9741 73.8975,178.2761 C73.0035,179.6911 72.0175,181.0501 71.0505,182.4181 C70.3895,183.3491 69.5305,183.8901 68.3785,183.4081 C67.2765,182.9491 66.5485,183.3751 65.8075,184.3771 C66.3955,184.7871 66.9405,185.2391 67.5495,185.5791 C69.2465,186.5281 69.3705,186.4971 70.9395,185.2451 C73.6915,183.0501 75.3385,180.3291 75.5825,176.6971 C75.9985,170.4811 76.5255,164.2691 77.1915,158.0761 C77.5755,154.5061 76.8635,151.2851 75.1795,148.1691 C73.0005,144.1331 70.3295,140.4841 67.1765,137.1491 C62.2345,131.9241 57.4175,126.5801 52.4755,121.3541 C50.0635,118.8031 47.5135,116.3781 44.9745,113.9501 C44.1135,113.1281 43.0485,112.5211 42.1695,111.7141 C41.9115,111.4761 41.9755,110.8901 41.8925,110.4631 C42.3155,110.4121 42.8045,110.2021 43.1485,110.3441 C43.8135,110.6161 44.3965,111.0871 45.0135,111.4751 C45.1435,111.3411 45.2745,111.2061 45.4045,111.0701 C39.6415,100.6481 34.4525,89.9001 27.6155,79.8961 C26.7615,80.4541 26.0895,80.8651 25.4445,81.3161 C19.3855,85.5601 14.2615,90.8481 9.0895,96.0741 C7.6355,97.5431 6.3165,99.1751 5.1185,100.8611 C1.4455,106.0331 0.8875,111.6421 3.2935,117.4611 C6.0245,124.0621 10.3485,129.5181 16.4505,133.2201 C21.1445,136.0671 26.1095,138.5471 31.1535,140.7271 C43.3185,145.9891 55.5935,150.9971 67.8435,156.0601 C69.5315,156.7581 70.8475,157.8081 71.7845,159.0021 L71.7845,159.0021 Z M238.4585,417.9681 C238.3975,417.7061 238.2635,417.4631 238.3075,417.2611 C238.4635,416.5621 238.6485,415.8661 238.8815,415.1891 C241.2355,408.3341 241.1285,401.3851 239.7815,394.3621 C239.5335,393.0681 238.9295,392.5501 237.6815,392.6681 C237.1255,392.7211 236.5715,392.8011 236.0155,392.8581 C228.7835,393.6101 221.5595,394.4431 214.3175,395.0811 C209.1425,395.5361 203.9435,395.7141 198.7585,396.0481 C197.8385,396.1071 196.9295,396.3271 195.7225,396.5191 C197.7435,404.5561 198.5645,412.4831 198.6055,420.4791 C198.6475,428.5561 197.2125,436.4721 195.4385,444.3291 C195.9625,444.4681 196.1885,444.5761 196.4175,444.5811 C207.1275,444.8041 217.8365,445.1521 228.5465,445.2021 C246.3795,445.2841 264.2135,445.1731 282.0475,445.1431 C283.0665,445.1421 284.0875,445.1431 285.2665,445.1431 C285.8395,442.3111 286.6425,439.7581 286.8225,437.1601 C287.2515,430.9691 285.1685,425.8451 279.6265,422.5231 C278.1885,421.6621 276.7615,420.6871 275.1955,420.1551 C270.0615,418.4071 264.8685,416.8351 259.6925,415.2141 C259.4995,415.1541 259.2465,415.2861 259.0015,415.3331 C258.1025,417.1071 258.1745,419.2511 256.8825,420.8561 C255.6545,420.0131 255.6395,420.0091 255.9415,418.8551 C256.3165,417.4221 256.7195,415.9951 257.1565,414.3961 C255.1935,413.8491 253.5335,413.3871 251.6955,412.8751 C251.3035,414.6011 251.0035,416.1571 250.5695,417.6741 C250.4495,418.0921 249.9285,418.6981 249.5975,418.6931 C248.7285,418.6821 248.7225,417.9341 248.8595,417.2691 C248.9715,416.7231 249.1945,416.1971 249.2925,415.6491 C249.4825,414.5841 249.6185,413.5081 249.7755,412.4481 C247.1325,411.2571 244.7495,410.1831 242.2445,409.0551 C242.0855,409.7001 241.9825,410.1551 241.8595,410.6031 C241.2915,412.6811 240.7325,414.7621 240.1385,416.8311 C239.9105,417.6221 239.5745,418.3581 238.4585,417.9681 L238.4585,417.9681 Z M237.6715,2.8591 C237.5325,2.7071 237.3935,2.5541 237.2555,2.4011 C236.5095,2.8071 235.7285,3.1601 235.0235,3.6271 C233.1605,4.8621 231.2815,6.0841 229.4975,7.4301 C227.1455,9.2031 224.7745,10.9751 222.6025,12.9571 C220.1385,15.2051 218.9555,18.1361 218.8615,21.5021 C218.7975,23.8111 218.7775,26.1341 218.5025,28.4231 C218.1115,31.6691 217.4865,34.8871 216.9945,38.1211 C215.5285,47.7471 214.1795,57.3901 212.5795,66.9931 C211.8465,71.3911 211.8755,75.9221 210.3495,80.1911 C209.8945,81.4641 209.5435,82.7831 209.2525,84.1041 C207.4545,92.2941 205.6925,100.4911 203.8965,108.6811 C203.7595,109.3091 203.4485,109.9001 203.1045,110.8081 C201.7195,109.5821 202.1705,108.4501 202.3845,107.4371 C203.6845,101.2691 205.0365,95.1111 206.3505,88.9451 C206.4685,88.3941 206.4375,87.8121 206.4935,86.9771 C204.6445,87.8021 203.0805,88.3971 201.6105,89.1731 C196.7355,91.7441 191.8905,94.3701 187.0475,96.9991 C185.9255,97.6071 184.8825,98.3631 183.7525,98.9541 C182.5785,99.5681 182.2925,100.4251 182.4845,101.7051 C183.0585,105.5161 183.9685,109.2081 185.8135,112.6271 C186.3445,113.6101 186.7835,114.6421 187.3045,115.6321 C190.9095,122.4861 194.3905,129.4101 198.1845,136.1591 C200.7275,140.6821 203.7185,144.9521 207.3995,148.6751 C210.8885,152.2041 214.9495,153.7291 219.9925,152.8981 C227.2875,151.6961 233.6105,146.0291 235.3665,138.8511 C236.6085,133.7721 236.9535,128.5971 237.2005,123.4101 C237.3795,119.6591 237.3255,115.8941 237.5535,112.1471 C238.2135,101.3051 238.9535,90.4671 239.6805,79.6291 C240.0025,74.8491 240.3205,70.0701 240.7225,65.2991 C241.2925,58.5401 242.0045,51.7931 242.5295,45.0321 C242.9205,40.0161 243.0615,34.9831 243.4035,29.9641 C243.8415,23.5371 244.3245,22.4171 250.7255,19.5151 C254.7165,17.7071 258.8785,16.2741 262.9745,14.7051 C264.3045,14.1951 265.6175,13.7091 266.3515,12.3221 C264.2515,11.4091 264.1565,11.4391 262.1135,11.8231 C256.1055,12.9511 250.3305,14.6901 245.1075,17.9951 C244.7455,18.2241 243.8815,18.2521 243.6655,18.0071 C243.1175,17.3841 243.6405,16.8451 244.1955,16.4551 C244.6525,16.1351 245.1215,15.8251 245.6075,15.5501 C249.5245,13.3331 253.6795,11.7251 258.0755,10.7541 C259.6795,10.4001 261.2855,10.0501 262.8895,9.6971 C262.8745,9.5381 262.8575,9.3801 262.8425,9.2221 C262.0785,9.2221 261.2935,9.1041 260.5555,9.2421 C257.7345,9.7681 254.8235,10.0791 252.1435,11.0281 C248.5505,12.3011 245.1305,14.0691 241.6605,15.6781 C240.9935,15.9861 240.4395,16.5361 239.7975,15.4011 C241.5315,12.6751 244.9325,12.3541 247.2445,10.4161 C245.6335,10.8521 244.1235,11.5251 242.5585,12.0281 C241.0235,12.5211 239.7415,13.8461 237.6955,13.5481 C238.1935,11.1371 240.3915,11.1811 241.8435,10.3921 C243.3945,9.5491 245.1035,8.9951 246.7435,8.3151 C244.7455,8.2881 242.8505,8.5431 241.0025,8.9881 C239.3005,9.3981 237.6195,9.9401 235.9785,10.5551 C233.5315,11.4731 230.9295,12.1051 229.0395,14.1441 C228.4885,14.7381 227.7325,15.8161 226.9075,14.8601 C226.1405,13.9731 227.2415,13.3001 227.8655,12.7461 C230.1375,10.7291 232.4485,8.7591 234.7325,6.7571 C235.9855,5.6581 237.1605,4.4921 237.6715,2.8591 L237.6715,2.8591 Z M142.6675,32.8961 C142.7505,33.6761 142.8305,34.3771 142.8975,35.0801 C143.2815,39.0841 143.3005,43.0951 142.1295,46.9641 C141.5385,48.9171 140.6345,50.8511 139.4995,52.5451 C137.8955,54.9341 135.5385,56.0691 132.5145,55.9161 C128.8045,55.7261 126.0195,53.8801 123.5465,51.3921 C119.3155,47.1381 116.3655,42.0341 113.9185,36.6091 C113.5995,35.9041 113.2385,35.2191 113.0215,34.7771 C86.3505,40.7721 62.5245,52.5481 39.8325,67.3341 C40.3185,68.2221 40.6785,68.9151 41.0705,69.5901 C44.6005,75.6671 48.2025,81.6961 50.6855,88.3251 C52.1405,92.2101 53.9015,95.9811 55.5695,99.7851 C56.3555,101.5771 57.2465,103.3231 58.1045,105.1231 C61.7425,103.5101 65.1025,102.0491 68.4375,100.5311 C71.4905,99.1431 74.4945,97.6471 77.5595,96.2891 C79.7015,95.3401 80.3145,95.7591 80.3165,98.1121 C80.3205,101.8681 80.3305,105.6281 80.1795,109.3801 C80.0385,112.8881 79.8855,116.4151 79.3885,119.8841 C78.6335,125.1761 77.3815,130.4001 76.7055,135.7011 C76.1035,140.4111 75.4445,145.2201 77.9645,149.7271 C78.4915,150.6721 78.6225,151.8531 78.8555,152.9421 C79.0835,154.0071 79.2105,155.0931 79.3875,156.2081 C83.4475,155.0031 87.3525,153.9201 91.2075,152.6781 C95.2235,151.3841 99.2265,150.0971 103.3715,149.2261 C112.5425,147.3011 121.7295,146.8961 130.9925,148.4361 C136.6625,149.3791 142.3355,150.3151 148.0235,151.1401 C153.8135,151.9791 159.6645,152.3771 165.4795,151.7271 C172.5495,150.9371 179.5175,149.5351 186.1515,146.8071 C187.2295,146.3641 188.3485,146.0211 189.6435,145.5631 C188.9475,142.1461 188.3535,138.9401 187.6215,135.7661 C187.2475,134.1451 186.5925,132.5921 186.1165,130.9921 C185.2305,128.0101 184.0555,125.0671 183.5805,122.0181 C182.1385,112.7931 181.0565,103.5131 179.6745,94.2781 C178.7885,88.3591 177.8505,82.4281 175.2855,76.9171 C174.5365,75.3081 173.8965,73.7601 171.7925,73.3971 C170.7355,73.2151 169.7525,72.5061 168.7865,71.9471 C168.3575,71.7001 168.0545,71.2371 167.6015,70.7791 C169.6865,69.1311 170.9855,71.7851 172.9905,71.3741 C172.5425,70.0191 172.0625,68.7771 171.7475,67.4951 C171.6395,67.0601 171.7905,66.2831 172.0965,66.0821 C172.8325,65.6011 173.2675,66.2361 173.4945,66.8701 C173.8965,67.9951 174.3755,69.1211 174.5555,70.2891 C174.7295,71.4221 175.0305,72.4021 175.6925,73.3611 C177.1065,75.4101 178.0515,77.6871 178.6585,80.1141 C179.0795,81.7951 179.6315,83.4441 180.2415,85.5041 C190.3875,78.4481 200.2565,71.5851 210.2585,64.6291 C209.2835,63.5631 208.3775,62.5631 207.4615,61.5731 C202.6345,56.3491 197.8295,51.1041 192.9665,45.9141 C189.3605,42.0661 185.7915,38.1711 181.9825,34.5291 C179.8695,32.5091 177.4005,30.8031 174.9095,29.2481 C171.6805,27.2331 168.0375,26.5231 164.3015,27.3721 C157.9245,28.8201 151.5895,30.4531 145.2425,32.0311 C144.4085,32.2381 143.6075,32.5761 142.6675,32.8961 L142.6675,32.8961 Z M127.0385,194.6101 C125.7655,194.3451 124.9075,194.1641 124.0495,193.9861 C120.2205,193.1911 116.3855,192.4231 112.5695,191.5671 C112.1785,191.4791 111.9035,190.8731 111.5745,190.5081 C111.9915,190.2331 112.3795,189.8201 112.8335,189.7261 C113.2635,189.6381 113.7615,189.8911 114.2315,189.9791 C119.4065,190.9501 124.5575,192.0851 129.7665,192.8161 C132.3415,193.1781 135.0235,192.8561 137.6525,192.7331 C141.4495,192.5551 144.2295,193.8941 146.0385,197.4201 C149.5015,204.1721 153.4025,210.7101 156.6635,217.5551 C163.6435,232.2051 170.7125,246.8001 178.9215,260.8131 C181.7525,265.6441 183.2955,270.8321 183.8955,276.4281 C185.0715,287.3891 186.5175,298.3201 187.9145,309.2551 C188.9055,317.0161 190.0175,324.7631 191.0425,332.5191 C192.2355,341.5451 193.3735,350.5781 194.5765,359.6011 C194.8575,361.7061 195.3035,363.7881 195.7215,366.1491 C209.9565,363.6091 224.1875,363.2651 238.2965,360.9741 C238.2145,359.3901 238.1635,358.0411 238.0735,356.6941 C237.6375,350.1551 237.1485,343.6181 236.7575,337.0761 C236.3565,330.3731 236.0835,323.6621 235.6885,316.9591 C234.9335,304.1111 234.1095,291.2671 233.3595,278.4201 C232.9825,271.9481 232.6815,265.4791 230.0435,259.4001 C229.3765,257.8641 228.9055,256.2431 228.2655,254.6941 C220.3355,235.4981 212.4845,216.2671 204.3955,197.1391 C201.5055,190.3021 198.0175,183.7191 194.8255,177.0091 C194.0405,175.3561 193.3445,173.6621 192.5715,171.9081 C186.5535,172.4231 181.6425,169.6131 176.8895,166.6821 C171.9745,163.6521 168.9625,158.9031 166.7585,153.8151 C166.3925,153.7331 166.2355,153.6591 166.0845,153.6691 C155.4605,154.3721 145.0315,152.8831 134.6475,150.8861 C124.8095,148.9941 114.9675,148.6991 105.1235,150.8211 C102.8925,151.3031 100.6785,151.8561 98.4965,152.3671 C98.0325,166.2371 90.7845,174.3481 78.0245,177.9891 C77.9605,178.8901 77.8955,179.6801 77.8485,180.4711 C77.3185,189.5661 76.8055,198.6631 76.2585,207.7591 C75.5225,219.9641 74.7545,232.1681 74.0145,244.3731 C73.6245,250.8351 73.2785,257.3001 72.8885,263.7631 C72.1595,275.8081 71.4045,287.8521 70.6785,299.8981 C70.2735,306.6001 69.9225,313.3061 69.5185,320.0081 C68.7935,332.0551 68.0505,344.0991 67.3095,356.1451 C66.8635,363.4051 66.4035,370.6641 65.9655,377.9241 C65.9135,378.7791 65.9575,379.6401 65.9575,380.6711 C66.8745,380.7381 67.6495,380.8241 68.4275,380.8471 C75.1225,381.0341 81.6135,379.7981 88.0645,378.1381 C93.3955,376.7661 98.7285,375.3111 104.1465,374.4041 C108.3805,373.6951 112.7445,373.7671 117.0515,373.4991 C119.0185,373.3771 120.9875,373.2711 123.1645,373.1451 C124.4585,313.5061 125.7465,254.1421 127.0385,194.6101 L127.0385,194.6101 Z M125.0175,372.8971 C125.4865,373.0151 125.7795,373.1321 126.0825,373.1611 C129.0735,373.4511 129.1015,373.4431 129.5035,376.3061 C129.7025,377.7301 129.7755,379.1711 129.9135,380.6031 C130.2635,384.2581 130.6455,387.9091 130.9515,391.5671 C131.0555,392.8121 130.9685,394.0731 130.9685,395.5221 C124.9825,396.3511 119.2395,397.1471 113.3335,397.9671 C113.2135,399.4561 113.0985,400.8691 112.9825,402.3081 C114.0825,403.0861 115.1075,403.8091 115.9445,404.4011 C115.7025,407.1551 115.4115,409.6741 115.2745,412.1991 C115.0505,416.3461 116.8515,419.7941 119.2805,422.9621 C119.6915,423.4981 120.3935,423.8651 121.0285,424.1691 C126.6375,426.8551 130.6625,431.2101 133.8965,436.3791 C136.1985,440.0561 136.9555,444.0481 136.0525,448.3231 C135.9875,448.6321 135.9515,448.9511 135.9375,449.2661 C135.8055,452.4211 133.4965,454.2811 130.5045,453.4031 C128.8735,452.9251 127.3655,452.4031 125.6685,453.0591 C125.1835,453.2471 124.4705,453.2641 124.0175,453.0421 C122.1025,452.1021 120.4035,452.8171 118.5615,453.3551 C116.3855,453.9921 114.1325,453.8001 112.0745,452.6471 C109.5055,454.3911 106.8555,454.7921 104.1095,453.3651 C103.1825,452.8831 102.5935,453.4721 101.9005,453.7871 C99.6675,454.8061 97.4675,455.1481 95.2735,453.4251 C93.2755,454.8691 91.2265,456.0581 89.1615,453.5021 C86.2445,455.1401 83.5825,455.0261 81.2505,452.4791 C80.5945,452.7481 80.0375,453.0891 79.4385,453.1971 C78.3565,453.3911 77.1215,453.8111 76.1845,453.4781 C74.7075,452.9541 73.4355,452.6241 71.9295,453.3181 C71.4945,453.5181 70.6265,453.2101 70.1725,452.8571 C68.4465,451.5181 67.4175,449.8361 67.7015,447.4901 C68.2535,442.9481 69.1575,438.5131 70.9025,434.2531 C71.4065,433.0241 71.5195,431.6331 71.7785,430.3091 C71.9305,429.5301 71.9565,428.7231 72.1455,427.9571 C73.0535,424.2841 72.7755,420.6691 71.7515,417.0671 C70.8775,413.9941 70.0445,410.9101 69.1995,407.8291 C68.4345,405.0371 68.5965,404.7941 71.5175,404.2021 C71.6665,404.1721 71.8025,404.0801 72.0845,403.9541 L72.0845,400.0511 C71.3355,399.9851 70.6495,399.9181 69.9645,399.8671 C67.3355,399.6711 64.6965,399.5681 62.0825,399.2581 C60.0395,399.0151 59.6135,398.4981 59.6665,396.4441 C59.7905,391.6541 59.9985,386.8671 60.2225,382.0811 C60.2545,381.4131 60.5735,380.7581 60.7905,379.9831 C61.9265,380.1701 62.8385,380.3191 63.9125,380.4951 C64.0135,379.7981 64.1475,379.1941 64.1855,378.5851 C64.6495,371.0891 65.0965,363.5911 65.5555,356.0941 C66.2765,344.3661 67.0075,332.6401 67.7275,320.9121 C68.0815,315.1681 68.4235,309.4241 68.7725,303.6801 C69.5575,290.7571 70.3535,277.8351 71.1275,264.9111 C71.6575,256.0551 72.1465,247.1961 72.6725,238.3391 C73.4685,224.9351 74.3205,211.5341 75.0585,198.1271 C75.2775,194.1441 75.1995,190.1451 75.2415,186.1541 C75.2445,185.8581 75.1165,185.5601 75.0555,185.2941 C73.7365,184.8621 73.2525,185.8321 72.6425,186.5191 C70.7685,188.6351 69.8075,188.8411 67.2745,187.5321 C66.0725,186.9111 64.9095,186.2121 63.7465,185.5571 C62.8805,185.9451 62.1065,186.3901 61.2745,186.6421 C59.5655,187.1601 58.4585,186.3531 58.7915,184.6291 C59.0305,183.3901 59.8495,182.2651 60.5955,180.7021 C60.5445,180.5151 60.3725,179.8191 60.1615,179.1361 C59.8185,178.0191 59.8805,177.1361 61.1295,176.5551 C61.4705,176.3951 61.6275,175.7011 61.7415,175.2221 C62.0845,173.7771 62.9385,173.3341 64.1285,174.2171 C65.1385,174.9661 65.9825,175.9401 67.0065,176.9171 C67.6715,176.4691 68.2975,176.0041 68.9635,175.6051 C69.9585,175.0111 70.4025,174.1571 70.3445,173.0121 C70.1415,169.0251 70.0035,165.0331 69.7185,161.0531 C69.5945,159.3111 68.4485,158.2161 66.8465,157.5561 C61.0885,155.1821 55.3135,152.8411 49.5915,150.3821 C39.8325,146.1881 30.0155,142.1121 20.3965,137.6181 C11.8525,133.6261 5.4725,127.2191 1.7355,118.4591 C-1.1185,111.7681 -0.4715,105.3471 3.8165,99.3871 C4.5625,98.3501 5.3245,97.3071 6.2085,96.3901 C12.2635,90.1191 18.3175,83.8431 25.6195,78.9591 C25.8775,78.7861 26.0935,78.5521 26.4235,78.2631 C26.0415,77.7091 25.6985,77.1971 25.3415,76.6961 C24.0555,74.8921 24.0185,74.6511 25.7265,73.1101 C28.8725,70.2731 32.0935,67.5211 35.2715,64.7231 C35.9705,64.1071 36.6545,63.9781 37.4095,64.5981 C37.7775,64.8981 38.1565,65.1851 38.6885,65.6031 C39.8685,64.8901 41.0645,64.1351 42.2915,63.4321 C50.1295,58.9511 57.8275,54.1971 65.8515,50.0781 C76.2225,44.7541 86.8145,39.8661 98.2265,37.0211 C102.4775,35.9631 106.6235,34.4711 110.8005,33.1241 C111.8325,32.7911 112.7995,32.2551 113.7805,31.8191 C114.9565,34.4141 115.8655,36.9801 117.2225,39.2831 C119.1235,42.5071 121.2115,45.6471 123.5055,48.6001 C124.7485,50.2011 126.4435,51.5691 128.1805,52.6441 C132.8995,55.5641 137.2525,54.1431 139.6065,49.0941 C140.8085,46.5161 141.2905,43.7451 141.3225,40.9391 C141.3485,38.5531 141.1405,36.1561 140.9025,33.7771 C140.6805,31.5491 140.7555,31.2091 142.8335,30.6881 C149.1805,29.0981 155.5555,27.6171 161.8955,26.0011 C168.5425,24.3071 174.5245,25.7991 179.6225,30.1171 C183.8185,33.6721 187.7145,37.6091 191.5135,41.5961 C197.6365,48.0171 203.5685,54.6211 209.5895,61.1401 C210.0125,61.5981 210.5025,61.9921 211.2935,62.7221 C211.6655,60.7111 212.0135,59.0431 212.2795,57.3621 C213.5095,49.6311 214.7965,41.9071 215.8975,34.1571 C216.4255,30.4501 216.8225,26.6921 216.8605,22.9541 C216.9165,17.4141 219.0125,12.9921 223.3745,9.7061 C227.1335,6.8761 231.0095,4.1961 234.9055,1.5571 C235.7165,1.0091 236.8295,0.7671 237.8315,0.6711 C239.4075,0.5171 240.1205,1.3481 239.6375,2.8781 C239.2625,4.0641 238.5245,5.1521 237.8485,6.2221 C237.4345,6.8771 236.8325,7.4131 236.0125,8.3481 C236.9255,8.1921 237.4115,8.1141 237.8965,8.0271 C243.1605,7.0821 248.4085,6.0361 253.6935,5.2401 C255.7985,4.9231 257.9855,5.1401 260.1345,5.1561 C260.6005,5.1601 261.1585,5.2231 261.5155,5.4781 C263.1845,6.6751 264.8945,7.7301 266.9355,8.2061 C267.2855,8.2871 267.6385,8.8771 267.7625,9.2991 C268.0265,10.1971 268.3045,11.1481 268.2625,12.0631 C268.2305,12.7701 267.9105,13.7071 267.3865,14.1001 C266.1305,15.0451 264.7435,15.8831 263.2955,16.4871 C259.3185,18.1451 255.2725,19.6381 251.2775,21.2511 C250.2465,21.6671 249.2835,22.2601 248.3135,22.8151 C245.9375,24.1761 244.9475,26.3171 244.8435,28.9791 C244.5555,36.2421 244.3635,43.5111 243.9075,50.7631 C243.5205,56.9011 242.6795,63.0121 242.2885,69.1491 C241.5765,80.3151 241.0735,91.4951 240.4365,102.6661 C240.0875,108.8051 239.6735,114.9401 239.2325,121.0741 C238.9005,125.6921 238.6115,130.3201 238.0545,134.9131 C237.6605,138.1531 237.0315,141.4051 235.2795,144.2711 C230.9075,151.4211 224.4035,154.8931 216.1355,154.9781 C212.8235,155.0131 209.9905,153.4371 207.5235,151.2381 C203.4735,147.6291 200.3075,143.2891 197.6425,138.6401 C193.5915,131.5761 189.8325,124.3441 185.9465,117.1831 C185.8085,116.9301 185.6395,116.6921 185.2885,116.1341 C185.1355,120.6871 186.6045,124.4911 187.9755,128.2771 C190.0375,133.9701 190.9825,139.8551 191.4785,145.8451 C191.4985,146.0711 191.4105,146.3071 191.3515,146.6691 C190.1055,147.2331 188.8125,147.8181 187.5695,148.3821 C187.0595,150.5241 187.8085,152.3921 188.3725,154.2901 C191.8615,166.0501 196.9265,177.1361 202.1795,188.2021 C208.1035,200.6781 213.3305,213.4901 218.6425,226.2471 C223.2795,237.3821 227.6295,248.6361 232.0775,259.8481 C233.8025,264.1951 234.5955,268.7171 234.8575,273.3991 C235.6545,287.6041 236.6375,301.7981 237.4965,315.9991 C237.8975,322.6201 238.1365,329.2511 238.5305,335.8731 C238.9355,342.6531 239.4445,349.4281 239.9025,356.2051 C240.0045,357.7021 240.0835,359.2011 240.1815,360.8551 L243.7445,360.8551 C243.8165,361.5401 243.9095,362.0711 243.9235,362.6041 C244.0415,366.9951 244.1175,371.3871 244.2635,375.7761 C244.3285,377.7201 244.2785,377.8441 242.1895,377.9731 C240.1345,378.1021 238.0785,378.2131 236.0545,378.3291 C235.9185,381.2871 235.7915,384.0731 235.6595,386.8581 C235.6335,387.4171 235.6245,387.9801 235.5435,388.5321 C235.4515,389.1511 235.3855,390.0151 234.5275,389.7961 C234.1705,389.7041 233.7955,388.8181 233.8045,388.3011 C233.8465,385.9841 234.0385,383.6701 234.1445,381.3541 C234.1875,380.4171 234.1515,379.4751 234.1515,378.1821 C221.4855,378.6791 209.1575,379.9361 196.8505,382.7551 C196.0005,386.5341 197.1115,390.2131 196.9515,394.1411 C198.2805,394.1411 199.3695,394.1941 200.4505,394.1321 C204.9995,393.8711 209.5555,393.6801 214.0925,393.2671 C221.3325,392.6101 228.5575,391.8001 235.7905,391.0511 C236.6645,390.9601 237.5345,390.8101 238.4105,390.7571 C240.5655,390.6271 241.0705,390.8951 241.3315,392.9651 C241.8105,396.7631 242.1165,400.5831 242.4645,404.3961 C242.5365,405.1841 242.4745,405.9851 242.4745,407.0071 C244.5535,408.0531 246.6555,409.1101 249.1275,410.3541 C249.0785,409.6391 249.1085,409.3541 249.0315,409.1031 C248.8205,408.4151 248.8135,407.7651 249.6175,407.5471 C250.5065,407.3051 250.7435,408.0821 250.8305,408.6771 C251.1385,410.7831 252.5815,411.5061 254.4225,411.8471 C255.2695,412.0031 256.1025,412.2401 257.3655,412.5421 C257.0475,410.7811 256.7815,409.3101 256.4975,407.7381 C258.4725,408.1481 258.5235,408.2501 259.3885,413.2251 C261.1675,413.7431 263.0685,414.2871 264.9645,414.8491 C269.9395,416.3251 274.8525,417.8781 279.4965,420.3341 C288.2575,424.9671 290.1125,434.4141 287.9205,441.9021 C287.6955,442.6681 287.3705,443.4231 287.2765,444.2051 C287.1555,445.2221 287.0545,446.2891 287.2345,447.2831 C287.8335,450.6071 285.0725,453.6071 281.8155,452.9081 C280.5125,452.6281 279.3775,452.6421 278.0935,453.0251 C275.6785,453.7441 273.3445,453.3821 271.2705,451.8291 C270.8915,451.5461 270.4955,451.2841 270.0305,450.9591 C267.3005,452.5521 264.3655,453.2531 261.2745,452.6121 C259.5745,452.2601 257.9355,451.5811 256.3005,450.9691 C255.5535,450.6881 254.9325,450.2601 254.0695,450.7511 C250.5195,452.7701 247.0195,452.2921 243.5755,450.4181 C243.2995,450.2671 242.9985,450.1591 242.5975,449.9831 C242.1005,450.3101 241.5635,450.6371 241.0565,451.0051 C239.0685,452.4451 236.9325,452.5971 234.6965,451.7201 C233.8815,451.4001 233.1985,451.0351 232.2435,451.5871 C229.2395,453.3201 226.2765,452.9491 223.4275,451.1021 C223.0995,450.8901 222.7415,450.7251 222.2535,450.4601 C219.2485,452.8271 216.0695,452.4601 212.8165,450.9481 C212.2945,450.7061 211.4505,450.5201 211.0405,450.7721 C207.6695,452.8441 204.4685,452.0831 201.2345,450.3511 C201.0435,450.4281 200.7955,450.4701 200.6195,450.6041 C199.1195,451.7591 197.5325,452.3361 195.7695,451.2251 C193.8895,450.0431 192.9305,447.7751 193.3225,445.6701 C194.2425,440.7231 195.3515,435.8041 196.0265,430.8241 C197.3915,420.7591 196.8725,410.7311 194.8075,400.7851 C194.5485,399.5341 194.2635,398.2831 194.1025,397.0181 C193.9895,396.1281 193.5995,395.0851 194.8985,394.5641 C195.0995,394.4831 195.1825,393.8801 195.1695,393.5231 C195.0445,390.1791 194.8865,386.8351 194.7415,383.5661 C194.5175,383.4091 194.3995,383.2571 194.2685,383.2451 C191.4165,382.9881 191.3005,383.0011 191.0645,380.1881 C190.7845,376.8481 190.6395,373.4881 190.6015,370.1361 C190.5675,367.0811 190.6665,367.0791 193.7815,366.1551 C193.5455,364.4041 193.3005,362.6111 193.0615,360.8171 C190.5635,342.0501 188.0355,323.2861 185.5835,304.5141 C184.2265,294.1381 182.9695,283.7481 181.7295,273.3571 C181.3735,270.3711 180.4895,267.5661 179.0965,264.9451 C176.5115,260.0771 173.6645,255.3441 171.1765,250.4271 C165.5105,239.2371 160.0665,227.9331 154.3905,216.7491 C151.1745,210.4101 147.6215,204.2421 144.3325,197.9391 C143.0465,195.4741 141.0825,194.5371 138.4755,194.6101 C135.5235,194.6931 132.5725,194.8311 129.5515,194.9471 C128.7675,195.9521 128.7735,197.1431 128.7505,198.3321 C128.5355,209.3641 128.3285,220.3951 128.0975,231.4271 C127.7785,246.6941 127.4425,261.9621 127.1115,277.2291 C126.8035,291.4571 126.5015,305.6841 126.1795,319.9111 C125.8025,336.5361 125.4045,353.1611 125.0215,369.7861 C124.9975,370.8101 125.0175,371.8371 125.0175,372.8971 L125.0175,372.8971 Z" id="Fill-8"/><path d="M136.6204,154.8037 C138.0664,154.7767 138.2454,155.6817 138.3834,156.6747 C138.7784,159.5167 139.1784,162.3587 139.6204,165.1937 C140.1474,168.5757 140.7234,171.9517 141.2694,175.3317 C141.3724,175.9607 141.4894,176.5937 141.5144,177.2287 C141.5864,179.1277 141.0304,180.1317 139.1804,180.6017 C137.4224,181.0477 135.5724,181.1457 133.7574,181.3507 C132.7274,181.4667 131.6834,181.5747 130.6554,181.5167 C130.2294,181.4917 129.8294,181.0227 129.4174,180.7557 C129.8054,180.4287 130.1444,179.9557 130.5924,179.8097 C131.1814,179.6157 131.8534,179.6927 132.4894,179.6317 C134.3144,179.4577 136.1564,179.3717 137.9594,179.0657 C139.5194,178.7987 139.7834,178.3157 139.6414,176.7357 C139.5614,175.8637 139.4204,174.9947 139.2844,174.1287 C138.3464,168.1477 137.3934,162.1677 136.4744,156.1847 C136.4084,155.7577 136.5624,155.2977 136.6204,154.8037" id="Fill-11"/><path d="M237.6624,402.5175 C237.3044,402.1725 236.8634,401.9395 236.8534,401.6895 C236.8434,401.4155 237.3034,400.8595 237.4294,400.8945 C237.8144,400.9995 238.1394,401.3305 238.4874,401.5735 C238.2524,401.8425 238.0164,402.1125 237.6624,402.5175" id="Fill-13"/><path d="M238.473,408.7285 C238.155,408.1945 237.814,407.8605 237.795,407.5095 C237.785,407.2845 238.247,407.0355 238.497,406.7955 C238.772,407.1185 239.147,407.4065 239.273,407.7785 C239.327,407.9415 238.869,408.2765 238.473,408.7285" id="Fill-15"/></g></g></g></g><g id="Head" transform="translate(111.000000, 0.000000) scale(1 1)" fill="#000"><g id="Head/Ponytail" stroke="none" stroke-width="1" fill="none" fill-rule="evenodd"><path d="M-8.4639,10.9963 C-9.2469,12.7403 -9.9469,14.5403 -10.4719,16.3763 C-11.2369,19.0623 -11.7929,21.8073 -12.4739,24.5173 C-12.7799,25.7413 -13.2259,32.2873 -19.2319,33.7423 C-26.9779,35.6183 -32.1789,39.8563 -34.3599,44.1573 C-34.0979,42.8223 -33.5229,41.3183 -32.4559,39.6033 C-27.6099,31.8153 -20.0769,31.0843 -16.4559,30.7333 C-16.1659,30.7043 -15.8979,30.6793 -15.6539,30.6513 C-13.8329,30.4493 -12.9549,25.8603 -11.9389,20.5473 C-11.0009,15.6493 -9.9399,10.0973 -7.9619,7.3703 C-5.4739,3.9403 -0.0819,-0.4787 6.9271,-1.6457 C8.7701,-1.9537 10.4131,-1.81741688 11.8371,-1.4727 C10.0911,-1.5697 8.2621,-1.1977 6.4071,-0.6987 C-0.1829,1.0723 -5.5539,4.5203 -8.4639,10.9963 M-34.1959,55.2363 C-34.3009,56.2473 -34.6669,57.2373 -35.1849,58.2563 C-35.5689,59.0153 -35.8459,59.9013 -35.9829,60.7873 C-36.0229,58.2183 -35.3649,56.7633 -34.1959,55.2363 M18.1881,4.9633 C18.1821,5.0473 18.1681,5.0983 18.1411,5.1053 C16.3311,5.5383 14.7041,6.3233 13.1411,7.2353 C12.2951,7.6223 11.5011,8.1023 10.7921,8.6963 C10.4841,8.8953 10.1781,9.0963 9.8701,9.2953 C9.6271,9.4533 9.2921,9.4673 8.9641,9.5573 C8.1291,8.6553 8.2521,7.8043 9.1711,7.3393 C11.7181,6.0543 14.3141,4.8583 16.9441,3.7533 C17.3311,3.5903 17.8951,4.2013 18.1881,4.9633 M27.9071,4.7143 C25.5571,4.4633 23.1541,4.7263 20.7761,4.6693 C20.0471,4.6523 18.5601,2.6093 17.9581,1.9253 C17.9561,1.9303 17.9551,1.9403 17.9531,1.9473 C17.9071,1.8663 17.8701,1.7833 17.8101,1.7083 L17.9031,1.6253 C17.8911,1.6123 17.5471,1.2443 16.9261,0.7503 C15.8481,-0.2877 14.6981,-0.9027 13.4941,-1.2157 C11.7321,-1.9007 9.5011,-2.3287 6.8861,-1.8927 C-0.1979,-0.7117 -5.6489,3.7553 -8.1629,7.2233 C-10.1749,9.9963 -11.2419,15.5763 -12.1849,20.5003 C-13.1409,25.4993 -14.0439,30.2213 -15.6819,30.4033 C-15.9239,30.4303 -16.1919,30.4563 -16.4809,30.4843 C-20.1409,30.8393 -27.7569,31.5793 -32.6669,39.4713 C-33.9599,41.5483 -34.5399,43.3443 -34.7149,44.9023 C-35.5439,46.8523 -35.7559,48.7883 -35.2759,50.4963 C-35.0809,51.1863 -34.8719,51.8793 -34.5969,52.5413 C-34.2729,53.3163 -34.1449,54.0563 -34.1599,54.7823 C-35.6119,56.6043 -36.4409,58.2613 -36.2079,61.6483 C-36.1819,62.0443 -36.1079,62.4203 -36.0019,62.7823 C-35.2659,68.7893 -30.7289,73.8223 -24.4169,75.0123 C-13.5559,77.0603 -4.7329,73.4853 2.7291,65.2433 C5.4941,62.1883 11.8341,54.8123 8.1511,40.4883 C7.4871,38.0603 6.9821,35.5893 6.4801,33.1163 C6.5451,32.4773 6.6281,31.8413 6.6851,31.2023 C6.9041,28.7373 6.8781,28.6633 4.5081,27.4363 C2.6841,26.4923 1.6281,24.4633 2.2771,22.9133 C2.4991,22.3853 3.0401,21.7333 3.5241,21.6493 C4.4021,21.5073 5.4871,22.7093 6.2531,23.5953 C6.3811,23.7613 6.5011,23.9013 6.6031,23.9983 C6.8061,24.2293 6.9701,24.4043 7.0751,24.4663 C7.3061,24.0063 7.6661,23.5673 7.7421,23.0833 C7.8981,22.0983 8.0281,21.1093 8.1581,20.1203 C8.2751,19.8353 8.3901,19.5513 8.5301,19.2783 C9.6491,17.1013 10.9341,14.9813 12.3941,13.0193 C13.2481,11.8723 14.5891,11.2193 16.2231,11.5923 C19.4011,12.3183 22.4651,12.2503 25.5991,10.9423 C28.4441,9.7543 30.3791,11.0373 31.1751,14.0113 C31.2881,14.4343 31.4171,14.8533 31.5501,15.2723 C31.5221,16.1883 31.4771,17.1033 31.3931,18.0123 C30.7931,24.5433 29.9361,31.0363 26.9881,37.0313 C25.6311,39.7923 24.2081,40.4073 21.1851,39.4753 C18.9621,38.7893 16.8411,37.8813 15.0441,36.3353 C14.5301,35.8933 13.8851,35.1493 13.2381,36.0043 C12.6481,36.7853 13.4031,37.3513 13.9621,37.7643 C14.9221,38.4703 15.9031,39.1783 16.9621,39.7143 C19.6151,41.0583 22.3791,42.0343 25.4031,41.4753 C25.6801,42.2833 25.9121,42.8763 26.0871,43.4853 C27.1441,47.1683 28.1671,50.8613 29.2541,54.5353 C29.5231,55.4473 29.4611,56.6493 31.3561,57.1233 C31.2121,56.0303 31.1981,55.2593 31.0001,54.5393 C29.9011,50.5373 28.7351,46.5543 27.6471,42.5493 C27.4111,41.6763 26.9021,40.8243 27.5391,39.8153 C30.0541,35.8293 31.2511,31.3663 32.1081,26.7873 C33.0551,21.7253 33.6521,16.6283 33.3671,11.4793 C33.8391,7.5453 31.9821,5.1503 27.9071,4.7143" id="Fill-6" fill="#000"/></g></g><g id="Face" transform="translate(125.000000, 12.000000) scale(1 1)" fill="#000"><g id="Face/Handsome" stroke="none" stroke-width="1" fill="none" fill-rule="evenodd"><g id="Group-22" transform="translate(-1.000000, 1.000000)" fill="#000"><polygon id="Fill-1" points="10.8261 4.5516 12.3541 10.5966 10.1251 10.8206"/><g id="Group-21" transform="translate(0.000000, 0.034800)"><path d="M10.83,4.5764 L10.138,10.7724 L12.341,10.5534 L10.83,4.5764 Z M10.125,10.7954 C10.123,10.7954 10.12,10.7944 10.118,10.7924 C10.116,10.7904 10.115,10.7874 10.115,10.7834 L10.815,4.5154 C10.816,4.5114 10.82,4.5074 10.825,4.5064 C10.83,4.5074 10.835,4.5104 10.836,4.5144 L12.364,10.5594 C12.365,10.5624 12.364,10.5654 12.363,10.5684 C12.361,10.5704 12.358,10.5724 12.355,10.5724 L10.126,10.7954 L10.125,10.7954 Z" id="Fill-2"/><path d="M5.7739,8.4426 C5.3779,8.4676 4.9929,8.3946 4.6299,8.2586 C4.6729,8.2626 4.7149,8.2646 4.7579,8.2646 C5.2519,8.2646 5.7309,8.0196 6.1089,7.5746 C6.4209,7.2076 6.6209,6.7436 6.6599,6.3046 L8.9909,6.2786 C8.5339,6.9266 7.3639,8.3386 5.7739,8.4426 M2.2099,6.3536 L2.8619,6.3456 C2.9099,6.7466 3.0869,7.1636 3.3579,7.5066 C2.8509,7.0996 2.4499,6.6496 2.2099,6.3536 M9.5679,5.9556 C9.5299,5.8896 9.4629,5.8506 9.3829,5.8506 L1.7829,5.9336 C1.7049,5.9346 1.6339,5.9786 1.5979,6.0476 C1.5619,6.1176 1.5659,6.2006 1.6099,6.2656 C1.6289,6.2936 2.0849,6.9586 2.8219,7.6126 C3.7529,8.4396 4.7149,8.8716 5.6189,8.8716 C5.6799,8.8716 5.7409,8.8696 5.8019,8.8656 C6.7529,8.8026 7.7069,8.3146 8.5609,7.4536 C9.1979,6.8106 9.5539,6.1936 9.5689,6.1686 C9.6069,6.1016 9.6069,6.0206 9.5679,5.9556" id="Fill-4"/><path d="M15.1069,7.9866 C13.1449,8.0296 12.2379,6.8236 11.9189,6.2536 L12.3339,6.2566 C12.3789,6.6276 12.5419,6.9656 12.8059,7.2226 C13.1169,7.5276 13.5409,7.6956 13.9979,7.6956 C14.8379,7.6956 15.5369,7.0836 15.6759,6.2816 L17.6589,6.2966 C17.2729,6.8526 16.3479,7.9616 15.1069,7.9866 M18.2269,5.9796 C18.1889,5.9166 18.1199,5.8766 18.0449,5.8756 L11.5839,5.8276 C11.5149,5.8256 11.4479,5.8606 11.4079,5.9176 C11.3679,5.9746 11.3589,6.0476 11.3829,6.1126 C11.3919,6.1366 11.6119,6.7156 12.1819,7.2896 C12.6959,7.8046 13.5999,8.4116 15.0119,8.4116 C15.0459,8.4116 15.0809,8.4116 15.1159,8.4106 C17.0119,8.3716 18.1809,6.2786 18.2299,6.1896 C18.2659,6.1246 18.2649,6.0446 18.2269,5.9796" id="Fill-6"/><path d="M9.3349,1.7893 C9.3349,1.7893 9.6149,3.5973 9.2039,3.9853 C7.1899,3.9853 5.0649,2.2653 2.8589,2.4573 C1.7129,2.5583 0.2499,4.0013 0.0109,4.5173 C0.0109,3.4763 1.2109,1.6353 2.6209,1.2163 C5.2419,0.4363 9.3349,1.7893 9.3349,1.7893" id="Fill-8"/><path d="M4.5376,0.9866 C3.8746,0.9866 3.2116,1.0516 2.6236,1.2266 C1.9876,1.4156 1.3206,1.9306 0.7956,2.6396 C0.3316,3.2646 0.0386,3.9606 0.0216,4.4706 C0.3286,3.8946 1.7626,2.5436 2.8586,2.4476 C4.0446,2.3436 5.2116,2.7946 6.3406,3.2296 C7.3326,3.6126 8.2696,3.9736 9.1996,3.9746 C9.5856,3.6006 9.3426,1.9156 9.3256,1.7976 C9.2376,1.7686 8.2396,1.4486 6.9586,1.2206 C6.2626,1.0966 5.4006,0.9866 4.5376,0.9866 M0.0106,4.5276 L0.0086,4.5276 C0.0036,4.5266 -0.0004,4.5216 -0.0004,4.5166 C-0.0004,3.9996 0.2986,3.2756 0.7786,2.6276 C1.3066,1.9146 1.9766,1.3966 2.6186,1.2066 C3.3666,0.9836 4.7276,0.8016 6.9626,1.2006 C8.2986,1.4376 9.3276,1.7756 9.3376,1.7786 C9.3416,1.7806 9.3446,1.7836 9.3456,1.7876 C9.3566,1.8616 9.6216,3.6056 9.2106,3.9936 C9.2086,3.9956 9.2066,3.9966 9.2036,3.9966 C8.2686,3.9966 7.3286,3.6326 6.3326,3.2496 C5.2066,2.8146 4.0416,2.3646 2.8606,2.4676 C1.7436,2.5656 0.2726,3.9756 0.0196,4.5216 C0.0186,4.5256 0.0146,4.5276 0.0106,4.5276" id="Fill-10"/><path d="M11.3339,1.6702 C11.3339,1.6702 11.2689,2.9812 11.3449,3.6932 C11.3659,3.8842 11.5389,4.0192 11.7279,3.9972 C13.5249,3.7872 16.6729,3.3712 18.4259,3.8662 C17.6619,2.0942 11.3339,1.6702 11.3339,1.6702" id="Fill-13"/><path d="M11.3442,1.6809 C11.3382,1.8089 11.2832,3.0229 11.3552,3.6929 C11.3652,3.7809 11.4082,3.8599 11.4782,3.9149 C11.5492,3.9719 11.6362,3.9969 11.7262,3.9869 C11.8312,3.9739 11.9412,3.9609 12.0542,3.9479 C13.9272,3.7269 16.7512,3.3929 18.4072,3.8499 C17.9952,2.9509 16.1082,2.4099 14.5912,2.1139 C13.0062,1.8039 11.4872,1.6919 11.3442,1.6809 M11.6872,4.0099 C11.6062,4.0099 11.5292,3.9829 11.4652,3.9319 C11.3912,3.8729 11.3442,3.7879 11.3342,3.6949 C11.2592,2.9899 11.3232,1.6829 11.3232,1.6689 C11.3232,1.6659 11.3242,1.6629 11.3272,1.6609 C11.3292,1.6599 11.3322,1.6599 11.3342,1.6599 C11.3502,1.6599 12.9362,1.7689 14.5952,2.0929 C15.5702,2.2839 16.3792,2.5099 16.9992,2.7659 C17.7772,3.0859 18.2602,3.4549 18.4362,3.8619 C18.4372,3.8659 18.4372,3.8699 18.4342,3.8729 C18.4312,3.8759 18.4272,3.8769 18.4232,3.8759 C16.7742,3.4109 13.9352,3.7469 12.0572,3.9689 C11.9432,3.9829 11.8342,3.9949 11.7292,4.0069 C11.7152,4.0089 11.7002,4.0099 11.6872,4.0099" id="Fill-15"/><path d="M7.2338,12.3127 C8.2908,13.3127 9.1498,13.8687 10.5818,13.9637 C12.0148,14.0597 13.0168,13.5357 13.0168,13.5357 C13.0168,13.5357 11.8708,15.4807 10.4858,15.8417 C7.6218,16.5907 7.7568,14.3437 7.2338,12.3127" id="Fill-17"/><path d="M7.2534,12.3459 C7.3344,12.6659 7.3994,12.9919 7.4634,13.3069 C7.6714,14.3389 7.8674,15.3149 8.5534,15.7429 C9.0044,16.0249 9.6354,16.0539 10.4834,15.8319 C11.7534,15.4999 12.8354,13.8109 12.9894,13.5609 C12.8044,13.6489 11.8574,14.0589 10.5814,13.9749 C9.1404,13.8779 8.2954,13.3279 7.2534,12.3459 M9.4844,15.9999 C9.1094,15.9999 8.7974,15.9199 8.5424,15.7609 C7.8484,15.3269 7.6514,14.3479 7.4424,13.3109 C7.3774,12.9849 7.3094,12.6469 7.2234,12.3159 C7.2224,12.3109 7.2244,12.3069 7.2284,12.3039 C7.2324,12.3019 7.2374,12.3019 7.2414,12.3059 C8.2924,13.2999 9.1364,13.8569 10.5824,13.9529 C11.9954,14.0479 13.0024,13.5319 13.0124,13.5269 C13.0164,13.5239 13.0214,13.5249 13.0244,13.5289 C13.0284,13.5319 13.0284,13.5369 13.0264,13.5409 C13.0144,13.5609 11.8624,15.4929 10.4894,15.8529 C10.1134,15.9499 9.7794,15.9999 9.4844,15.9999" id="Fill-19"/></g></g></g></g><g id="Glasses" transform="translate(122.000000, 17.000000) scale(1 1)"><g id="Glasses/Heart" stroke="none" stroke-width="1" fill="none" fill-rule="evenodd"><path d="M18.2017307,8.06751298 C18.1262795,8.12983266 18.0572955,8.186382 18.0001682,8.23369879 C17.9268727,8.16907098 17.838487,8.09290248 17.7371668,8.00750144 C16.610788,7.04616272 13.6196864,4.49336411 13.6735801,2.36757069 C13.7134615,0.802654357 14.7126511,-0.422965955 15.9478952,-0.422965955 C16.7045631,-0.422965955 17.4105708,0.0375072129 17.8341755,0.809578765 L18.0669964,1.23081362 L18.2998173,0.809578765 C18.7234219,0.0375072129 19.4294297,-0.422965955 20.1860976,-0.422965955 C20.7519817,-0.422965955 21.2963083,-0.169070975 21.7199129,0.292556261 C22.2049564,0.823427582 22.4755029,1.57472591 22.4604127,2.35372187 C22.4205313,4.59723024 19.2451132,7.20888632 18.2017307,8.06751298 M6.63937139,8.05943451 C6.54236269,8.1321408 6.4572106,8.19446047 6.38607089,8.24754761 C6.29876306,8.17830352 6.18881986,8.09405655 6.06163068,7.99596076 C4.80806268,7.03462204 1.47958635,4.48413156 1.53994732,2.36872475 C1.58414018,0.802654357 2.71051899,-0.422965955 4.10313279,-0.422965955 C4.96219873,-0.422965955 5.75874795,0.0421234853 6.23624634,0.821119446 L6.4615221,1.18926717 L6.68679786,0.821119446 C7.16537412,0.0421234853 7.96192335,-0.422965955 8.82098929,-0.422965955 C9.50759532,-0.422965955 10.1780332,-0.120600115 10.660921,0.40796307 C11.141653,0.934218119 11.3981871,1.6255049 11.3830969,2.3525678 C11.3378262,4.58915176 7.80239793,7.20080785 6.63937139,8.05943451 M22.1036362,-0.111367571 C21.5797893,-0.684939411 20.8974947,-1 20.1860976,-1 C19.3658351,-1 18.5973106,-0.576457011 18.0669964,0.151759954 C17.5366822,-0.576457011 16.7681577,-1 15.9478952,-1 C14.4270143,-1 13.1993153,0.455279862 13.1378765,2.32025389 L11.9198784,2.34679746 C11.9338907,1.46970571 11.6234629,0.638776688 11.0457222,0.00519330641 C10.4615142,-0.634160415 9.65095262,-1 8.82098929,-1 C7.904796,-1 7.04788581,-0.56491633 6.4615221,0.180611656 C5.8751584,-0.56491633 5.01932608,-1 4.10313279,-1 C2.41733713,-1 1.05490382,0.471436815 1.00101009,2.35025967 C0.933104004,4.77380265 4.30685106,7.36122331 5.74796921,8.46566647 C5.96462198,8.63185228 6.12738102,8.75649163 6.21037735,8.83035199 L6.38068152,8.98153491 L6.55206356,8.83266013 C6.6178139,8.77611079 6.75578183,8.6745528 6.94656561,8.53375649 C8.19366636,7.61165609 11.3507606,5.27582227 11.8498165,2.92613964 L13.1756021,2.89613387 C13.5215998,5.14541258 16.2033515,7.43739181 17.4019479,8.45874207 C17.5948874,8.62261973 17.7382447,8.74610502 17.8136959,8.81996538 L17.9947788,9 L18.1780175,8.82227351 C18.2351448,8.76572418 18.3591004,8.66532025 18.5304824,8.52452395 C19.7398576,7.52971725 22.9540792,4.88574726 22.9993499,2.36526255 C23.0165959,1.43162147 22.6899999,0.529140219 22.1036362,-0.111367571" id="Fill-1" fill="#FA6400"/></g></g></g></g></g></svg>